<?xml version="1.0" standalone="no"?>
<!DOCTYPE svg PUBLIC "-//W3C//DTD SVG 20010904//EN"
 "http://www.w3.org/TR/2001/REC-SVG-20010904/DTD/svg10.dtd">
<svg version="1.0" xmlns="http://www.w3.org/2000/svg"
 width="1920.000000pt" height="1143.000000pt" viewBox="0 0 1920.000000 1143.000000"
 preserveAspectRatio="xMidYMid meet">

<g transform="translate(0.000000,1143.000000) scale(0.100000,-0.100000)"
fill="#000000" stroke="none">
<path d="M0 5715 l0 -5715 4045 0 c2225 0 4045 4 4045 8 0 4 -5 13 -11 19 -15
15 59 84 83 77 18 -5 51 33 41 49 -3 6 -1 7 5 3 6 -3 14 -2 17 4 4 6 16 10 28
9 41 -4 55 1 60 20 3 14 11 17 29 14 14 -3 39 2 55 10 16 9 41 14 56 13 15 -2
27 0 27 5 0 4 31 7 70 6 48 -1 71 2 75 10 3 9 11 10 30 3 14 -5 25 -7 25 -4 0
4 7 1 15 -6 10 -9 15 -9 15 -1 0 6 5 11 11 11 6 0 8 -7 5 -16 -4 -10 -2 -13 6
-8 21 13 68 12 68 -2 0 -8 11 -16 25 -20 14 -3 25 -10 25 -16 0 -5 4 -7 9 -4
5 3 15 -2 22 -11 10 -12 10 -14 2 -9 -7 4 -13 2 -13 -3 0 -6 8 -11 18 -12 14
0 14 -2 -3 -8 -20 -8 -20 -8 1 -15 29 -9 36 -55 12 -81 -10 -10 -18 -24 -18
-32 0 -11 883 -13 5160 -13 l5160 0 0 2358 c0 2287 -1 2358 -19 2369 -10 6
-21 25 -24 42 -4 18 -13 31 -21 31 -9 0 -13 6 -10 14 3 8 1 23 -5 34 -6 12 -7
22 -2 24 5 2 12 29 15 60 6 73 25 136 48 167 17 22 19 44 18 212 -1 134 -5
189 -13 193 -8 3 -8 5 -1 5 10 1 10 19 1 72 -2 10 -9 24 -16 33 -9 10 -11 28
-7 51 6 32 5 35 -29 49 -19 8 -35 18 -35 21 0 3 3 4 8 1 4 -2 16 3 27 11 18
14 18 15 1 9 -13 -4 -17 -2 -13 8 3 8 -1 20 -9 26 -19 16 -18 30 2 30 12 0 15
6 10 25 -4 14 -2 25 3 25 5 0 7 8 4 18 -2 11 9 31 30 52 29 31 34 43 36 93 2
51 0 56 -16 51 -14 -5 -15 -4 -4 4 8 6 15 32 17 63 1 30 0 44 -2 31 -7 -27
-44 -66 -84 -87 -28 -14 -120 -21 -120 -9 0 14 77 74 95 74 17 0 17 2 5 10
-13 8 -13 10 2 10 11 0 15 5 12 15 -4 8 -1 15 5 15 9 0 9 5 0 22 -10 18 -9 20
6 14 14 -5 16 -2 11 19 -4 15 -2 25 4 25 6 0 10 6 8 14 -5 25 17 19 22 -6 4
-14 9 -18 13 -12 4 7 2 25 -3 40 -5 16 -9 36 -8 44 3 36 -3 50 -22 50 -14 0
-20 -7 -20 -22 0 -18 -35 -74 -65 -103 -13 -13 -104 -45 -127 -45 -9 0 -29 5
-45 12 -15 6 -34 12 -40 14 -20 4 -64 42 -53 46 6 2 -1 15 -14 29 -13 14 -26
34 -29 45 -4 17 -5 17 -12 -3 -4 -13 -15 -23 -25 -23 -12 0 -21 -14 -30 -45
-18 -65 -82 -121 -146 -130 -27 -3 -71 -11 -99 -16 -27 -6 -116 -13 -197 -16
-185 -8 -211 0 -297 93 -81 88 -98 133 -82 224 7 37 19 77 26 87 8 10 15 26
15 36 0 16 6 26 55 80 13 14 21 28 18 31 -2 2 20 9 50 15 39 9 62 9 82 1 45
-17 85 -19 154 -9 43 7 67 6 76 -1 7 -6 51 -10 102 -9 78 1 96 -2 139 -24 27
-14 62 -40 78 -57 29 -31 30 -31 38 -11 4 12 12 21 18 21 5 0 10 10 10 23 0
31 46 73 95 86 148 40 261 -22 280 -154 5 -33 20 -70 46 -109 21 -32 39 -65
39 -72 0 -8 5 -14 10 -14 7 0 10 845 10 2515 l0 2515 -9600 0 -9600 0 0 -5715z
m3970 2174 c36 -13 130 -98 130 -118 0 -6 4 -11 9 -11 4 0 7 -16 5 -35 -1 -19
2 -38 7 -41 6 -3 7 -14 4 -25 -4 -11 -2 -19 5 -19 6 0 8 -5 5 -10 -4 -6 -11
-7 -17 -4 -8 5 -9 -4 -5 -27 5 -23 4 -29 -2 -19 -13 19 -19 12 -23 -25 -2 -17
-7 -33 -12 -37 -15 -10 -16 -42 -3 -51 8 -6 6 -7 -5 -3 -10 3 -22 -2 -27 -12
-9 -15 -10 -15 -11 3 -1 17 -3 17 -12 -5 -6 -14 -11 -27 -10 -30 2 -15 -162
-20 -193 -6 -11 5 -22 10 -25 11 -23 6 -71 39 -80 55 -6 11 -15 18 -21 15 -5
-4 -9 -1 -9 4 0 6 5 11 11 11 7 0 8 7 4 18 -21 49 4 241 33 261 11 8 26 43 23
56 -2 6 0 7 4 3 4 -3 19 6 33 21 49 49 91 53 182 20z m760 -45 c65 -3 137 -20
155 -36 5 -4 15 -8 22 -8 21 0 100 -55 96 -67 -2 -6 5 -21 16 -32 12 -12 19
-21 16 -21 -2 0 2 -19 10 -41 8 -23 15 -52 15 -65 0 -13 4 -24 8 -24 4 0 39
29 77 64 63 60 72 65 126 71 77 9 133 -1 168 -31 16 -13 35 -24 43 -24 15 0
48 -33 92 -92 15 -21 32 -38 37 -38 6 0 24 -9 40 -21 16 -11 29 -18 29 -15 0
11 35 -31 52 -62 12 -22 13 -32 5 -36 -7 -2 -5 -5 4 -5 20 -1 35 -112 18 -143
-6 -11 -8 -26 -5 -34 3 -8 1 -14 -4 -14 -6 0 -10 -6 -10 -12 0 -26 -36 -98
-49 -98 -7 0 -11 -6 -8 -14 4 -9 -2 -17 -14 -21 -10 -4 -19 -11 -19 -16 0 -6
-4 -8 -9 -5 -5 3 -15 -1 -22 -10 -8 -10 -22 -14 -40 -10 -17 3 -29 1 -31 -6
-3 -9 -12 -9 -34 0 -40 17 -154 22 -155 8 0 -8 -2 -8 -5 0 -5 12 -66 6 -75 -8
-3 -5 -14 -1 -24 8 -17 17 -46 20 -115 9 -14 -2 -33 -4 -44 -4 -15 -1 -16 -4
-6 -16 9 -11 8 -18 -9 -36 -12 -13 -21 -28 -21 -35 0 -7 -9 -19 -20 -27 -11
-8 -17 -17 -13 -20 3 -4 1 -7 -5 -7 -7 0 -12 -6 -12 -14 0 -8 -7 -16 -15 -20
-8 -3 -15 -9 -14 -13 3 -20 -2 -27 -11 -13 -8 13 -10 12 -10 -2 0 -10 -7 -18
-15 -18 -7 0 -18 -7 -23 -16 -25 -45 -225 -72 -288 -39 -16 8 -37 15 -46 15
-10 0 -18 5 -18 10 0 6 -7 10 -15 10 -8 0 -15 5 -15 10 0 6 -5 10 -11 10 -11
0 -24 13 -54 56 -8 11 -18 43 -21 70 -6 55 -18 66 -79 70 -22 2 -53 6 -70 9
-16 4 -40 7 -52 8 -13 1 -23 6 -23 11 0 4 -9 6 -20 3 -14 -4 -25 1 -33 14 -16
26 -30 24 -21 -3 6 -23 6 -23 -13 -3 -19 19 -21 51 -2 39 15 -9 10 16 -6 32
-18 19 -20 55 -2 73 10 11 6 12 -23 7 -28 -6 -31 -5 -17 4 9 6 17 20 17 30 0
10 5 22 11 26 6 3 9 18 6 31 -3 14 1 37 8 52 7 14 22 44 32 66 10 22 39 55 63
73 52 39 69 70 70 129 0 75 36 152 100 215 69 67 101 79 195 72 39 -3 99 -8
135 -10z m-2402 -196 c58 -29 69 -40 95 -88 25 -50 28 -62 24 -130 -3 -58 -10
-88 -33 -132 -16 -32 -35 -58 -41 -58 -7 0 -13 -4 -13 -10 0 -11 -36 -50 -47
-50 -5 0 -16 -11 -25 -24 -15 -21 -15 -26 -2 -52 20 -37 32 -149 22 -194 -4
-19 -5 -51 -2 -71 3 -23 1 -40 -6 -44 -7 -4 -9 -20 -6 -38 6 -30 5 -30 -5 -7
-9 23 -11 23 -20 7 -6 -9 -7 -22 -3 -29 4 -7 3 -8 -4 -4 -7 4 -12 2 -12 -4 0
-6 -5 -8 -12 -4 -7 4 -8 3 -4 -4 4 -7 19 -12 34 -13 32 -1 26 -3 -53 -19 l-60
-13 30 -13 c17 -7 26 -13 21 -14 -5 0 -1 -10 10 -22 17 -19 17 -21 2 -15 -19
7 -34 -8 -18 -18 17 -10 11 -23 -12 -31 -13 -5 -26 -7 -29 -7 -3 1 -6 -5 -6
-12 0 -10 7 -13 23 -9 32 8 54 -17 54 -60 0 -26 4 -36 16 -36 8 0 12 -5 9 -10
-4 -6 -4 -18 0 -28 5 -14 7 -14 15 -2 8 13 10 12 10 -2 0 -16 -10 -22 -30 -20
-3 0 -6 -8 -6 -19 0 -10 4 -19 8 -19 4 0 8 -8 8 -17 0 -9 7 -24 15 -33 25 -27
43 -120 38 -193 -5 -79 -14 -108 -43 -137 -11 -11 -19 -24 -16 -28 2 -4 -2
-12 -9 -19 -11 -10 -15 -10 -19 0 -5 9 -7 9 -12 0 -3 -7 -12 -13 -20 -13 -11
0 -12 -4 -4 -19 10 -19 11 -19 40 -3 16 9 30 20 30 25 0 4 14 7 31 7 26 0 28
-2 16 -14 -8 -8 -22 -14 -32 -13 -10 1 -20 -4 -23 -12 -2 -8 0 -11 5 -8 6 4
20 -4 32 -17 15 -16 19 -26 11 -31 -8 -5 -8 -10 0 -20 6 -7 8 -19 4 -28 -4
-10 3 -20 20 -29 14 -7 25 -17 25 -23 1 -10 5 -11 38 -14 9 0 14 -4 10 -7 -9
-9 21 -36 32 -30 5 3 8 -2 7 -12 -1 -12 5 -16 19 -14 19 2 19 2 3 -11 -21 -16
-24 -31 -5 -24 7 2 18 -6 24 -19 6 -13 7 -22 2 -18 -5 3 -9 -2 -9 -10 0 -9 5
-16 10 -16 7 0 7 -6 0 -20 -6 -11 -7 -20 -3 -20 4 0 2 -5 -5 -12 -8 -8 -8 -16
0 -32 15 -27 19 -221 5 -261 -5 -16 -16 -35 -24 -42 -8 -6 -13 -17 -12 -25 5
-23 -21 -60 -38 -54 -9 4 -17 -1 -20 -13 -3 -11 -14 -22 -25 -24 -11 -3 -17
-10 -13 -16 3 -6 2 -11 -4 -11 -6 0 -13 -16 -17 -35 -3 -19 -10 -35 -16 -35
-5 0 -7 -4 -3 -9 3 -5 1 -12 -5 -16 -5 -3 -10 -1 -10 4 0 6 -5 11 -11 11 -8 0
-8 -5 1 -15 16 -19 5 -84 -16 -92 -7 -3 -14 -18 -14 -33 0 -15 -7 -33 -15 -40
-8 -7 -12 -16 -9 -21 3 -5 -3 -9 -13 -9 -13 0 -14 -3 -6 -8 18 -11 18 -122 1
-122 -6 0 -8 -6 -5 -12 2 -7 -2 -28 -9 -47 -17 -40 -17 -44 -4 -36 16 10 12 0
-12 -27 -13 -14 -49 -38 -80 -53 -32 -14 -58 -30 -58 -35 0 -12 -123 -40 -176
-40 -144 0 -260 153 -252 333 2 41 6 73 9 71 3 -2 14 23 24 56 10 33 26 68 36
79 20 22 25 36 9 26 -6 -3 -10 -1 -10 5 0 7 7 10 15 6 9 -3 24 3 36 15 11 11
24 17 29 14 6 -4 10 0 10 7 0 9 14 13 43 13 64 -1 111 29 78 49 -12 8 -8 30 8
50 7 8 10 19 7 24 -3 5 4 23 15 41 11 18 17 36 14 42 -4 5 1 9 9 9 9 0 15 3
14 8 0 4 2 15 7 26 6 13 3 21 -8 28 -10 5 -17 14 -17 21 0 7 -7 21 -16 32 -13
17 -16 18 -24 5 -5 -8 -10 -24 -10 -34 0 -33 -49 -123 -77 -145 -16 -11 -34
-26 -42 -32 -18 -16 -130 -27 -168 -17 -23 6 -93 59 -93 71 0 1 11 3 24 3 18
1 26 -5 30 -22 4 -13 11 -24 17 -24 8 0 7 5 -1 15 -13 15 -8 19 23 16 9 -1 17
3 17 9 0 6 -4 8 -10 5 -5 -3 -10 -1 -10 5 0 21 31 22 49 1 28 -32 51 -28 42 7
-5 15 -13 26 -20 24 -6 -1 -11 2 -11 8 0 5 4 10 9 10 5 0 12 8 15 17 4 10 4
14 0 10 -4 -4 -13 -2 -20 4 -19 15 12 48 40 42 17 -4 18 -3 6 6 -20 14 -60 14
-60 -1 0 -6 -3 -8 -7 -5 -3 4 2 17 13 28 14 16 15 23 7 26 -18 6 -16 23 2 23
8 0 15 4 15 9 0 17 -20 23 -35 11 -8 -7 -22 -10 -30 -6 -10 4 -14 2 -9 -5 4
-7 0 -9 -14 -5 -11 4 -43 8 -71 9 -31 1 -51 7 -51 14 0 6 -18 28 -40 49 -58
55 -87 116 -89 189 -4 122 47 233 123 269 69 33 203 13 260 -40 20 -18 36 -36
36 -40 0 -4 10 -15 22 -25 11 -11 16 -19 10 -19 -5 0 -8 -9 -5 -20 3 -11 8
-20 12 -20 15 0 29 23 24 38 -4 10 -2 13 5 8 8 -4 12 0 13 11 0 14 2 15 6 3 3
-8 12 -19 19 -23 8 -4 14 -16 14 -26 0 -23 30 -37 41 -19 9 15 -8 38 -27 38
-8 0 -14 5 -14 11 0 6 8 8 18 5 16 -5 19 -1 18 26 -1 18 -5 38 -9 44 -4 7 2
12 18 12 13 0 31 7 40 16 15 15 15 16 0 16 -9 0 -13 4 -10 10 3 5 -7 22 -22
37 -33 33 -49 64 -59 113 -7 39 -43 122 -57 131 -4 3 -11 27 -15 53 -9 58 -23
63 -37 12 -6 -22 -17 -42 -23 -44 -7 -2 -12 -9 -12 -15 0 -6 -21 -30 -46 -52
-33 -31 -67 -49 -121 -66 -41 -13 -77 -29 -80 -36 -7 -18 -23 -16 -23 2 0 9
-12 20 -26 25 -34 13 -47 13 -38 -2 5 -9 3 -9 -9 1 -9 7 -15 17 -12 21 3 5 0
12 -6 16 -7 4 -9 3 -6 -2 3 -6 2 -16 -2 -23 -7 -10 -13 -8 -30 10 -16 18 -24
20 -33 11 -9 -9 -9 -12 1 -12 7 0 9 -5 6 -10 -4 -6 -11 -8 -16 -5 -5 4 -9 2
-9 -3 0 -5 10 -13 23 -17 12 -3 17 -9 10 -11 -15 -6 11 -70 27 -66 5 1 10 -5
10 -13 0 -8 -6 -16 -12 -17 -7 0 -17 -2 -23 -2 -5 -1 -16 -5 -22 -9 -7 -5 -19
-5 -25 -1 -7 5 -20 9 -29 9 -38 3 -107 83 -92 108 3 5 -1 13 -8 18 -17 10 -21
117 -6 137 6 8 6 12 -3 12 -9 0 -8 7 4 25 9 14 14 25 11 25 -3 0 1 13 10 30 8
16 14 31 13 33 -7 9 74 77 91 77 20 0 54 31 111 100 54 65 54 67 21 85 -82 42
-126 138 -118 256 11 165 101 269 232 269 52 0 66 -4 144 -37 88 -39 137 -135
128 -254 -3 -37 -8 -72 -11 -78 -4 -6 2 -19 14 -31 11 -11 20 -24 20 -30 0
-13 -17 -13 -25 0 -9 15 -35 0 -35 -21 0 -10 -5 -19 -12 -19 -17 0 -68 -51
-68 -68 0 -10 8 -13 25 -9 14 2 23 2 20 -1 -3 -3 5 -16 17 -29 26 -28 68 -31
68 -5 0 9 7 26 15 36 11 14 12 23 4 32 -6 7 -8 22 -5 32 5 16 2 19 -24 17 -32
-2 -35 2 -20 25 8 12 10 12 16 -3 3 -10 11 -17 18 -16 6 1 19 1 30 0 15 -1 16
-4 7 -15 -10 -12 -6 -20 19 -45 17 -16 32 -33 33 -38 2 -10 21 -5 25 8 2 5 12
9 22 9 10 0 21 6 23 13 4 9 8 8 16 -3 9 -13 12 -12 25 5 18 24 20 39 4 29 -8
-5 -9 -2 -4 12 9 22 9 22 7 52 -1 19 -5 22 -23 16 -13 -3 -20 -3 -15 1 4 5 0
17 -10 27 -9 10 -12 18 -7 18 4 0 -9 16 -29 35 -20 19 -32 35 -26 35 6 0 4 7
-5 15 -24 25 -35 210 -13 232 4 3 7 16 7 29 0 22 86 120 125 142 19 10 19 12
2 99 -17 83 -17 103 -1 178 12 56 59 128 107 166 44 35 51 37 99 33 31 -2 77
-17 116 -36z m1762 -148 c0 -5 -2 -10 -4 -10 -3 0 -8 5 -11 10 -3 6 -1 10 4
10 6 0 11 -4 11 -10z m20 -384 c0 -2 -7 -7 -16 -10 -8 -3 -12 -2 -9 4 6 10 25
14 25 6z m-3 -48 c-3 -8 -6 -5 -6 6 -1 11 2 17 5 13 3 -3 4 -12 1 -19z m8 -68
c3 -5 2 -10 -4 -10 -5 0 -13 5 -16 10 -3 6 -2 10 4 10 5 0 13 -4 16 -10z
m7921 -56 c-11 -7 -16 -17 -12 -21 4 -4 11 -1 15 6 5 7 13 11 19 7 18 -11 41
4 35 22 -4 9 8 2 26 -16 23 -24 31 -39 27 -55 -3 -12 -3 -17 0 -10 3 8 15 9
35 3 33 -10 34 -10 52 -10 9 0 9 -2 -1 -8 -7 -5 -10 -16 -6 -25 3 -9 10 -15
15 -12 4 3 6 -3 4 -13 -2 -10 1 -25 6 -33 7 -11 9 -11 9 -1 0 7 5 10 10 7 6
-3 10 -17 10 -31 0 -14 5 -23 13 -21 6 1 12 -5 13 -13 1 -36 16 -79 30 -84 8
-3 14 -16 14 -29 0 -14 7 -30 15 -37 8 -7 15 -20 15 -29 1 -25 26 -53 47 -49
12 2 18 -3 17 -13 -1 -11 5 -16 15 -14 9 2 18 4 21 4 3 1 -2 6 -10 11 -12 8
-11 9 5 7 11 -2 29 -8 39 -12 23 -10 60 29 51 54 -3 8 -3 12 1 9 3 -4 15 2 27
12 11 11 18 22 15 26 -4 3 3 17 15 32 63 75 79 91 85 90 4 -1 30 5 57 14 70
23 105 30 105 21 0 -5 18 -8 40 -8 25 -1 51 -9 70 -23 16 -12 44 -24 62 -25
21 -2 32 -8 30 -16 -2 -9 4 -12 18 -8 14 3 20 0 20 -10 0 -12 3 -13 13 -4 17
13 27 5 20 -17 -4 -15 -3 -15 9 -2 7 8 19 15 26 16 6 1 22 2 35 3 16 1 27 13
41 48 33 79 109 150 188 174 71 22 415 4 517 -26 97 -30 160 -119 169 -237 8
-118 -37 -195 -146 -245 -37 -18 -52 -29 -48 -40 3 -8 2 -12 -3 -9 -16 10 -32
-21 -25 -50 7 -26 8 -26 20 -9 13 17 14 16 14 -13 0 -20 6 -35 15 -38 12 -5
13 -10 4 -20 -9 -11 -8 -14 2 -14 8 0 15 -10 16 -22 1 -13 3 -39 6 -58 2 -19
0 -45 -4 -57 -5 -12 -5 -25 0 -27 10 -6 -4 -113 -17 -129 -15 -19 -12 -69 6
-97 9 -14 17 -27 17 -30 0 -3 6 -14 12 -25 6 -11 12 -24 14 -30 1 -5 4 -18 7
-27 2 -10 11 -18 18 -18 16 0 19 -16 5 -22 -5 -1 -7 -15 -4 -30 3 -15 9 -25
14 -22 5 3 9 -1 9 -9 0 -8 -8 -18 -17 -22 -17 -6 -17 -7 1 -21 14 -10 16 -14
5 -14 -9 0 -10 -3 -3 -8 14 -9 24 -62 13 -62 -5 0 -9 -4 -9 -10 0 -5 7 -10 15
-10 8 0 15 -4 15 -10 0 -5 -7 -10 -15 -10 -9 0 -15 -9 -15 -24 0 -13 -6 -26
-14 -29 -7 -3 -13 -18 -13 -33 0 -16 -6 -30 -12 -32 -6 -2 -11 -10 -11 -18 0
-8 -6 -14 -14 -14 -8 0 -17 -11 -20 -25 -4 -15 -18 -30 -34 -36 -15 -6 -34
-17 -43 -24 -8 -8 -24 -16 -35 -18 -10 -2 -32 -9 -48 -16 -23 -9 -31 -9 -37 1
-6 10 -11 8 -22 -6 -10 -13 -16 -15 -21 -8 -9 14 -56 16 -56 3 0 -6 -19 -7
-42 -4 -24 3 -55 6 -70 6 -15 0 -25 4 -22 8 3 5 -20 8 -51 7 -46 -1 -58 -5
-67 -22 -18 -35 -51 -66 -70 -66 -10 0 -18 5 -18 11 0 7 -8 18 -17 25 -20 15
-37 18 -30 7 3 -5 -5 -8 -18 -8 -13 0 -21 5 -18 11 2 7 0 15 -6 19 -6 3 -11 0
-11 -7 0 -7 -13 -14 -31 -15 -18 -1 -40 -10 -49 -18 -11 -10 -20 -12 -24 -7
-7 12 -46 4 -46 -9 0 -5 6 -9 13 -10 9 0 9 -2 0 -5 -6 -3 -23 2 -37 11 -22 15
-25 15 -34 0 -8 -15 -12 -13 -35 16 -24 31 -27 32 -54 19 -46 -24 -49 -24 -34
-6 17 21 11 27 -28 28 -19 1 -31 6 -31 15 0 7 -9 13 -20 13 -22 0 -62 38 -54
52 3 4 -3 8 -13 8 -11 0 -25 6 -32 13 -11 10 -13 9 -8 -5 4 -10 2 -18 -3 -18
-5 0 -12 11 -16 25 -7 30 -6 30 -46 5 -18 -11 -42 -20 -53 -20 -18 1 -19 1 -2
11 9 5 17 15 17 22 0 9 -2 9 -8 0 -10 -15 -41 -11 -53 8 -8 10 -9 8 -4 -8 4
-14 2 -23 -4 -23 -11 0 -14 11 -29 84 -8 42 -32 55 -53 30 -6 -8 -19 -14 -29
-14 -10 0 -20 -7 -24 -15 -3 -9 -12 -12 -23 -9 -13 4 -14 3 -5 -3 10 -8 10
-12 -3 -23 -8 -7 -15 -19 -15 -26 0 -8 -7 -14 -15 -14 -8 0 -20 -10 -26 -22
-8 -14 -14 -18 -17 -10 -5 17 -22 15 -22 -3 0 -13 -4 -14 -21 -5 -11 7 -21 10
-22 8 -16 -31 -28 -43 -46 -48 -12 -3 -23 -9 -23 -15 -2 -21 -97 -101 -138
-115 -37 -13 -44 -21 -59 -65 -31 -93 -85 -146 -177 -173 -55 -16 -84 -15
-141 4 -94 32 -143 92 -176 222 -10 39 -16 49 -25 40 -16 -16 -69 -20 -94 -7
-14 8 -27 8 -42 1 -28 -14 -78 -26 -91 -22 -51 15 -104 19 -130 10 -20 -7 -31
-7 -33 0 -2 5 -12 10 -22 10 -10 0 -22 5 -25 11 -4 6 -14 8 -22 5 -8 -3 -12
-2 -9 3 3 5 -1 11 -9 15 -8 3 -15 0 -15 -7 0 -7 -4 -6 -10 3 -8 13 -13 13 -31
2 -15 -10 -24 -11 -32 -3 -6 6 -21 11 -33 11 -30 0 -85 20 -79 30 3 4 -4 10
-15 13 -11 3 -20 1 -20 -4 0 -5 -5 -9 -11 -9 -5 0 -7 4 -4 10 3 5 1 18 -5 27
-10 17 -10 17 -8 -1 2 -10 -2 -21 -8 -23 -17 -6 -44 25 -38 42 4 8 2 15 -4 15
-6 0 -12 -6 -15 -12 -2 -7 -15 7 -28 31 -13 24 -30 53 -37 65 -6 11 -15 38
-18 58 -4 21 -10 35 -15 32 -5 -3 -9 2 -9 11 0 14 -3 13 -27 -2 l-28 -18 19
30 c10 17 13 24 5 18 -7 -7 -24 -12 -38 -12 -17 1 -20 3 -8 6 9 2 17 7 17 9 0
13 -30 34 -48 34 -16 0 -19 5 -15 23 3 12 10 27 15 33 5 8 1 13 -13 17 -16 4
-19 11 -14 27 6 18 4 20 -19 14 -15 -3 -26 -2 -26 4 0 5 9 12 21 15 14 4 18
10 13 18 -6 10 -9 10 -12 1 -2 -7 -8 -12 -14 -12 -6 0 -8 7 -4 15 4 11 -1 15
-17 15 -20 0 -23 4 -19 35 3 29 8 35 28 35 13 0 24 4 24 10 0 5 -6 7 -12 5
-20 -7 -36 7 -43 40 -6 25 -5 28 6 18 20 -19 31 -16 27 10 -2 17 2 22 19 21
20 0 20 1 7 20 -18 26 -18 37 1 30 15 -6 15 -3 -1 44 -6 16 -7 16 -13 0 -5
-15 -8 -13 -18 8 -10 22 -10 24 3 14 11 -10 14 -8 14 9 0 12 4 20 9 16 5 -3
12 -1 15 3 3 5 16 7 30 5 19 -4 26 1 37 26 7 16 16 25 20 19 7 -11 50 12 83
45 14 14 16 21 7 27 -9 5 -5 9 10 13 13 4 26 1 30 -4 4 -7 16 -6 35 6 24 13
25 15 7 12 -13 -3 -23 -1 -23 4 0 5 12 9 26 9 14 0 32 7 41 15 8 8 19 12 25 9
6 -4 -1 -13 -18 -22 -19 -10 -24 -17 -15 -20 7 -2 16 0 20 6 3 5 25 13 48 17
23 3 42 10 42 13 -3 20 2 25 11 12 6 -10 10 -11 10 -2 0 6 7 12 15 12 9 0 18
6 21 13 5 15 34 19 34 5 0 -9 41 -11 64 -2 9 3 16 12 16 20 0 17 28 3 69 -33
14 -13 29 -23 32 -23 16 0 35 47 29 70 -4 14 -3 33 2 43 5 9 6 22 3 27 -3 5
-1 11 5 15 5 3 10 15 10 25 0 18 43 70 58 70 4 0 16 10 26 21 15 18 15 23 5
30 -10 6 -7 9 11 9 20 0 22 2 10 10 -12 8 -11 12 8 31 13 11 26 19 29 15 3 -3
12 1 19 9 8 7 19 15 25 17 8 3 8 15 -1 46 -9 27 -10 46 -3 54 5 7 9 22 9 33
-1 11 2 23 7 26 4 3 9 14 11 25 10 47 30 81 74 121 26 24 54 43 63 43 8 0 19
3 23 7 17 17 105 13 162 -7 32 -12 65 -22 72 -23 6 0 12 -4 12 -9 0 -5 5 -6
10 -3 6 3 10 -1 10 -11 0 -13 3 -14 15 -4 10 9 15 9 15 1 0 -21 18 -11 24 14
4 14 11 25 17 25 6 0 8 8 5 18 -7 22 19 56 35 46 9 -5 10 -2 5 11 -7 18 -6 18
14 0 19 -17 20 -17 20 0 0 12 6 16 20 12 13 -3 20 0 20 10 0 9 6 13 15 9 9 -3
15 0 15 9 0 8 7 15 15 15 8 0 15 4 15 9 0 10 31 20 40 13 3 -2 -4 -10 -14 -18z
m131 -46 c-3 -8 -6 -5 -6 6 -1 11 2 17 5 13 3 -3 4 -12 1 -19z m-6916 -136
c42 -17 114 -69 152 -111 31 -35 48 -72 58 -131 5 -26 -11 -119 -21 -125 -6
-4 -8 -11 -5 -16 4 -5 1 -9 -4 -9 -6 0 -11 -7 -11 -15 0 -8 -9 -23 -20 -32
-11 -10 -20 -23 -20 -31 0 -7 -5 -10 -10 -7 -6 3 -13 0 -16 -8 -3 -8 -15 -17
-26 -20 -11 -3 -18 -9 -15 -14 6 -9 -155 -8 -220 2 -24 3 -45 11 -49 16 -3 6
-17 8 -30 5 -13 -4 -24 -2 -24 3 0 5 -19 30 -43 56 -65 69 -81 164 -46 265 7
19 16 47 22 63 5 15 16 27 24 27 8 0 12 4 9 8 -2 4 -2 12 2 18 12 17 108 72
133 76 32 4 128 -7 160 -20z m359 -294 c0 -19 -2 -20 -10 -8 -6 10 -10 11 -10
3 0 -7 -5 -13 -12 -13 -6 0 -3 9 7 20 23 25 25 25 25 -2z m1116 -33 c68 -20
141 -79 189 -151 22 -34 52 -70 67 -80 16 -11 28 -25 28 -31 0 -7 7 -13 15
-13 8 0 15 -5 15 -10 0 -6 8 -28 18 -48 9 -20 16 -48 15 -62 -8 -89 -16 -135
-24 -138 -5 -2 -9 -8 -9 -12 0 -5 -18 -28 -40 -52 -22 -24 -40 -39 -40 -34 0
6 -6 2 -13 -8 -17 -23 -76 -35 -174 -36 -91 0 -113 -5 -113 -27 0 -9 -8 -22
-17 -30 -10 -8 -13 -12 -6 -9 6 4 14 2 18 -4 3 -5 1 -10 -6 -10 -10 0 -10 -3
-1 -12 14 -14 16 -48 3 -48 -5 0 -11 6 -14 13 -3 6 -4 2 -4 -10 1 -12 9 -27
18 -34 16 -11 16 -14 2 -36 -14 -21 -14 -23 0 -17 12 4 14 1 10 -15 -3 -11 -8
-19 -12 -18 -3 1 -17 -8 -31 -20 -21 -21 -40 -28 -62 -24 -5 0 -8 -3 -8 -7 0
-8 -34 -14 -87 -14 -13 0 -23 -4 -23 -9 0 -5 -4 -9 -10 -9 -5 0 -10 7 -10 16
0 10 -6 14 -15 10 -8 -3 -22 2 -31 11 -13 14 -17 14 -26 2 -7 -11 -11 -11 -15
-1 -2 6 -13 12 -24 12 -10 0 -19 5 -19 10 0 6 -10 10 -22 10 -19 0 -20 2 -8
10 13 8 12 10 -2 10 -16 0 -20 7 -20 30 0 3 3 16 7 29 6 18 4 22 -6 16 -8 -5
-6 1 4 12 21 24 21 30 1 51 -12 12 -13 17 -4 20 8 3 8 7 2 11 -5 3 -12 21 -15
39 -3 19 -16 41 -32 54 -15 12 -31 26 -36 32 -5 6 -20 24 -34 39 -14 15 -28
46 -31 67 -4 22 -9 38 -13 36 -9 -6 -7 57 2 72 5 7 4 12 -3 12 -5 0 -9 13 -8
29 1 16 6 27 10 25 7 -5 12 51 6 59 -8 7 79 89 112 105 21 10 57 42 81 72 76
92 162 126 330 129 36 0 88 -6 115 -14z m-1189 -61 c-3 -3 -12 -4 -19 -1 -8 3
-5 6 6 6 11 1 17 -2 13 -5z m-84 -37 c3 -8 -1 -14 -9 -14 -15 0 -18 9 -7 20 9
9 10 9 16 -6z m42 3 c3 -5 1 -10 -4 -10 -6 0 -11 5 -11 10 0 6 2 10 4 10 3 0
8 -4 11 -10z m75 -9 c0 -5 -10 -13 -21 -16 -17 -6 -19 -9 -8 -17 11 -8 10 -9
-3 -5 -9 3 -19 1 -21 -6 -3 -7 -4 -2 -4 10 1 12 4 20 8 18 3 -3 15 2 25 10 23
17 24 18 24 6z m-140 -55 c0 -3 -7 -3 -15 0 -8 4 -15 13 -15 21 0 12 2 12 15
-1 8 -8 15 -17 15 -20z m197 18 c-3 -3 -12 -4 -19 -1 -8 3 -5 6 6 6 11 1 17
-2 13 -5z m13453 -24 c0 -5 -2 -10 -4 -10 -3 0 -8 5 -11 10 -3 6 -1 10 4 10 6
0 11 -4 11 -10z m-13540 -35 c-9 -11 -9 -15 -1 -15 7 0 20 -7 28 -16 11 -11
26 -14 47 -10 23 5 27 3 16 -5 -13 -9 -12 -12 5 -22 11 -7 41 -32 67 -57 85
-80 108 -208 57 -314 -10 -22 -19 -46 -19 -53 0 -7 -11 -20 -24 -28 -31 -20
-38 -48 -19 -75 8 -11 12 -27 10 -34 -3 -8 4 -23 17 -35 20 -19 24 -19 50 -6
36 19 45 19 20 0 -17 -13 -17 -14 -1 -15 19 0 24 -20 5 -20 -7 0 -13 -11 -13
-25 0 -14 3 -25 7 -25 4 0 3 -11 -2 -25 -7 -19 -6 -25 4 -25 9 0 13 -10 12
-31 -1 -16 1 -32 6 -35 11 -7 8 -107 -4 -121 -6 -7 -7 -13 -2 -13 5 0 10 -11
10 -25 2 -21 -1 -24 -12 -14 -12 9 -18 9 -27 0 -9 -10 -8 -11 6 -6 10 4 17 2
17 -4 0 -6 -7 -11 -15 -11 -18 0 -20 -16 -2 -23 6 -3 1 -6 -13 -6 -14 -1 -43
-17 -65 -36 -22 -19 -46 -35 -52 -35 -7 0 -13 -5 -13 -11 0 -7 -7 -17 -15 -23
-8 -6 -18 -25 -21 -43 -5 -27 -3 -32 12 -31 41 3 125 -25 168 -56 58 -41 85
-76 102 -133 38 -126 -15 -252 -128 -307 -72 -35 -132 -42 -200 -22 -83 24
-119 53 -155 125 -28 55 -33 75 -33 136 0 57 -3 74 -16 79 -27 10 -64 7 -65
-6 0 -10 -2 -10 -6 0 -12 30 -21 7 -16 -42 17 -161 -108 -284 -319 -312 -24
-3 -47 -10 -52 -14 -5 -5 -15 -6 -22 -3 -8 3 -14 0 -14 -7 0 -6 -5 -8 -10 -5
-6 4 -23 0 -39 -8 -56 -28 -261 -17 -261 14 0 5 -7 9 -15 9 -8 0 -15 6 -15 14
0 8 -7 17 -16 20 -8 3 -12 10 -9 16 3 6 -1 17 -9 26 -9 8 -16 21 -16 27 0 7 4
6 10 -3 6 -9 10 -10 10 -3 0 6 -7 18 -15 26 -8 8 -11 17 -8 21 4 3 1 6 -5 6
-7 0 -12 14 -12 30 0 17 -3 30 -8 30 -4 0 -13 13 -20 29 -9 21 -22 31 -47 35
-26 5 -35 12 -35 27 0 11 -4 18 -9 14 -18 -11 -22 15 -7 44 14 25 14 30 1 35
-8 3 -15 12 -15 21 0 25 -59 80 -82 77 -15 -3 -18 0 -12 10 13 21 12 47 -2 41
-7 -2 -10 -11 -7 -19 3 -8 0 -14 -5 -14 -15 0 -25 36 -17 61 4 12 12 18 21 15
10 -4 14 3 14 24 0 31 6 36 29 21 11 -7 10 -11 -5 -20 -11 -6 -14 -11 -8 -11
5 0 15 5 22 12 15 15 16 42 2 33 -6 -4 -17 9 -25 29 -18 43 -19 50 -2 43 8 -3
13 3 13 14 0 15 -5 17 -21 13 -16 -6 -18 -4 -9 7 7 8 9 29 7 48 -4 23 -8 29
-14 20 -7 -12 -11 -11 -19 1 -8 12 -10 8 -11 -15 l-1 -30 -7 30 c-7 29 -7 29
-19 9 -6 -12 -8 -24 -5 -28 3 -3 1 -6 -5 -6 -7 0 -12 5 -12 10 0 6 -6 10 -13
10 -22 0 -67 -24 -67 -36 0 -7 -7 -14 -15 -18 -8 -3 -15 -17 -15 -31 0 -14 -4
-25 -10 -25 -18 0 -11 -20 8 -21 9 0 12 -3 6 -5 -13 -6 -7 -44 7 -44 5 0 9 -4
9 -10 0 -5 -9 -10 -20 -10 -14 0 -20 -6 -19 -22 0 -13 3 -17 6 -10 9 22 20 13
15 -13 -3 -17 1 -27 12 -31 9 -3 16 -12 16 -19 0 -7 9 -15 20 -18 11 -3 20
-11 20 -19 0 -10 -3 -9 -10 2 -9 13 -14 7 -11 -12 0 -5 -7 -8 -17 -8 -24 0
-42 -19 -42 -46 0 -22 -24 -39 -41 -28 -5 3 -9 -5 -10 -18 0 -13 -3 -17 -6
-10 -7 19 -20 14 -26 -9 -5 -17 -11 -20 -32 -17 -17 4 -29 0 -35 -11 -8 -14
-10 -13 -10 4 -1 12 -4 15 -7 7 -4 -10 -8 -10 -18 -2 -20 17 -46 -1 -84 -57
-30 -44 -41 -52 -100 -71 -99 -32 -118 -34 -177 -22 -58 12 -95 45 -136 123
-32 59 -32 172 0 242 28 60 49 81 105 102 54 20 199 22 222 3 18 -15 20 -14
30 19 5 16 4 21 -4 17 -7 -5 -9 -1 -5 8 3 9 14 16 23 16 14 1 14 2 -2 14 -10
8 -13 16 -8 17 6 2 -14 4 -44 4 -30 0 -55 -2 -55 -6 0 -3 -56 -5 -125 -6 -70
0 -131 -5 -138 -11 -16 -14 -97 7 -97 25 0 13 -37 12 -59 -2 -6 -3 -9 9 -6 32
2 21 1 32 -1 26 -8 -19 -29 5 -38 42 -4 17 -9 38 -12 48 -3 9 -1 17 5 17 5 0
11 -15 13 -32 3 -18 5 9 6 60 1 57 -3 92 -9 92 -6 0 -7 -5 -3 -12 4 -6 3 -8
-3 -5 -5 3 -7 22 -5 41 2 20 8 33 13 30 5 -3 9 2 9 11 0 12 -5 15 -16 11 -10
-4 -14 -2 -10 6 3 7 9 20 12 29 3 9 15 17 27 18 12 1 41 3 64 4 23 1 45 5 49
10 4 4 16 7 26 7 10 0 18 4 18 8 0 5 26 8 58 7 31 -1 60 4 64 9 5 7 8 6 8 -2
0 -10 4 -10 16 2 8 9 24 17 35 17 23 2 27 3 57 13 22 7 23 8 5 23 -13 10 -13
13 -3 10 19 -5 50 10 50 25 0 7 -7 5 -17 -4 -18 -16 -43 -14 -43 3 0 5 8 9 18
9 10 0 13 3 6 8 -15 10 -25 40 -14 44 14 5 0 48 -16 48 -8 0 -14 6 -15 13 -2
31 4 92 11 111 18 44 93 126 116 126 8 0 14 5 14 11 0 6 7 9 15 5 12 -4 14 0
9 18 -3 13 -1 34 6 45 7 15 7 21 0 21 -7 0 -6 8 2 23 7 12 11 28 10 35 -4 15
10 16 26 0 9 -9 12 -8 12 5 0 14 4 16 19 7 14 -7 21 -6 24 3 3 9 8 9 18 1 8
-5 25 -9 39 -7 14 1 39 4 57 5 17 1 30 5 27 9 -5 9 70 4 85 -6 7 -4 18 -4 26
-1 8 3 15 1 15 -4 0 -6 9 -10 20 -10 20 0 29 -6 65 -38 8 -7 19 -11 24 -8 10
6 35 -20 44 -46 4 -10 13 -18 21 -18 10 0 13 -6 10 -15 -4 -8 -2 -15 4 -15 12
0 27 -73 23 -115 -2 -16 -4 -75 -4 -130 -1 -70 -5 -104 -14 -114 -8 -7 -12
-20 -9 -28 3 -8 6 -19 6 -24 0 -5 11 -4 25 3 13 6 22 15 19 19 -3 5 6 11 19
14 25 7 56 45 36 45 -8 0 -8 4 -1 13 6 7 9 24 6 38 l-6 24 21 -25 c17 -21 18
-26 5 -28 -9 -2 -13 -10 -10 -19 3 -8 6 -20 6 -26 0 -24 19 10 25 46 5 26 4
37 -5 37 -9 0 -9 4 1 17 12 15 12 16 -4 10 -27 -10 -77 3 -77 21 0 12 3 13 12
4 7 -7 19 -12 28 -12 11 0 8 6 -9 19 -20 15 -22 21 -12 37 11 16 12 16 7 2 -4
-13 0 -18 14 -18 13 0 20 -7 20 -20 0 -11 5 -20 10 -20 10 0 14 21 11 48 -1 6
5 12 14 12 14 0 14 3 -1 25 -16 25 -16 26 36 75 28 27 60 52 71 55 10 4 19 10
19 13 0 9 37 14 110 16 70 1 117 -8 138 -27 10 -9 30 -19 45 -22 18 -5 26 -12
23 -21 -3 -7 4 -16 15 -19 10 -4 19 -13 19 -21 0 -8 4 -14 9 -14 4 0 14 -27
20 -61 12 -60 13 -60 35 -46 13 9 28 12 36 7 8 -5 21 -1 33 11 11 10 24 16 28
13 14 -8 36 39 43 88 9 74 33 110 113 169 29 22 62 39 74 39 16 0 20 4 14 18
-5 14 -4 15 6 5 18 -18 30 -16 23 2 -4 8 -1 15 5 15 6 0 11 -4 11 -9 0 -5 9
-11 20 -14 11 -3 20 0 20 5 0 6 12 8 31 4 18 -3 38 -1 45 5 8 6 14 7 14 2 0
-5 18 -9 40 -9 22 1 39 6 38 11 -2 15 14 47 20 41 3 -3 -1 -12 -8 -21z m-140
5 c0 -5 -8 -10 -17 -10 -15 0 -16 2 -3 10 19 12 20 12 20 0z m11344 -4 c103
-43 167 -203 130 -325 -21 -67 -58 -122 -97 -145 -19 -11 -27 -21 -23 -32 3
-8 2 -12 -4 -9 -6 3 -10 -3 -10 -14 0 -13 7 -21 18 -22 16 -1 16 -2 -1 -6 -14
-4 -16 -8 -6 -19 6 -8 20 -14 30 -14 10 0 36 -7 56 -15 39 -16 91 -80 113
-140 15 -39 16 -140 1 -191 -14 -53 -74 -128 -114 -146 -41 -17 -150 -16 -202
1 -38 14 -98 66 -121 107 -13 22 -64 30 -94 14 -15 -8 -20 -8 -20 2 0 10 -2
10 -9 -1 -6 -8 -20 -12 -39 -9 -17 2 -29 1 -26 -3 2 -4 0 -11 -6 -14 -6 -4
-10 -3 -9 2 4 21 -3 32 -18 31 -10 -1 -40 3 -66 7 -44 7 -49 6 -54 -14 -3 -11
-9 -18 -15 -15 -5 3 -15 0 -23 -6 -8 -6 -19 -9 -24 -6 -6 4 -22 4 -36 0 -22
-5 -24 -9 -13 -22 11 -13 10 -14 -12 -7 -14 4 -26 12 -28 16 -2 5 -15 9 -28 9
-16 0 -24 -6 -24 -17 0 -15 -2 -15 -9 -4 -5 8 -23 16 -41 18 -19 2 -29 -1 -25
-7 3 -6 4 -10 1 -10 -2 0 -12 -3 -22 -7 -11 -4 -15 -2 -11 4 4 6 -10 9 -37 8
-38 -1 -42 1 -38 19 3 13 1 17 -6 12 -7 -4 -12 -15 -12 -24 0 -12 -3 -13 -12
-4 -8 8 -8 15 2 29 12 15 12 16 0 6 -8 -7 -18 -13 -22 -13 -13 0 -9 28 5 33 7
4 4 8 -10 12 -12 4 -24 13 -27 21 -3 8 -11 14 -18 14 -19 0 -41 39 -30 53 5 7
12 20 15 29 4 13 2 15 -10 11 -13 -5 -15 -2 -10 12 6 15 5 16 -8 5 -11 -9 -18
-10 -29 -1 -16 13 -29 54 -15 45 5 -3 9 -12 9 -20 0 -15 12 -19 23 -7 4 3 2
12 -4 19 -6 7 -7 19 -3 26 4 7 7 31 7 55 -1 24 2 43 7 43 4 0 6 10 3 21 -4 14
0 25 10 30 8 5 18 27 22 49 4 22 11 40 16 40 5 0 9 9 9 19 0 11 4 21 10 23 5
2 11 12 13 23 4 28 29 65 43 65 7 0 11 6 10 13 0 6 4 13 9 15 6 2 14 10 18 18
5 8 12 12 16 9 5 -2 12 5 16 18 4 14 8 17 12 9 6 -16 33 3 33 24 0 13 18 18
47 15 6 -1 14 3 18 8 3 6 13 7 22 4 10 -4 21 1 30 13 9 13 16 15 21 7 11 -18
82 -12 82 6 1 14 2 14 13 -1 10 -12 23 -15 52 -12 78 9 82 11 105 70 23 55 63
104 87 104 6 0 13 4 15 9 14 37 299 58 372 27z m-11481 -13 c-7 -2 -19 -2 -25
0 -7 3 -2 5 12 5 14 0 19 -2 13 -5z m8707 -14 c0 -5 -4 -9 -10 -9 -5 0 -10 7
-10 16 0 8 5 12 10 9 6 -3 10 -10 10 -16z m-10280 -20 c0 -4 -7 -6 -15 -3 -8
4 -15 10 -15 15 0 4 7 6 15 3 8 -4 15 -10 15 -15z m4906 -144 c64 -33 88 -54
113 -99 61 -108 32 -260 -62 -324 -87 -60 -177 -69 -268 -29 -66 30 -91 55
-124 132 -74 167 44 344 231 345 45 0 73 -6 110 -25z m10594 -9 c0 -3 -7 -3
-15 0 -8 4 -15 13 -15 21 0 12 2 12 15 -1 8 -8 15 -17 15 -20z m-17795 -40
c-11 -8 -24 -12 -29 -8 -5 3 -1 9 10 13 31 12 39 10 19 -5z m9125 -6 c0 -5 -4
-10 -10 -10 -5 0 -10 5 -10 10 0 6 5 10 10 10 6 0 10 -4 10 -10z m-6193 -32
c-3 -8 -6 -5 -6 6 -1 11 2 17 5 13 3 -3 4 -12 1 -19z m-2037 -28 c0 -5 -5 -10
-11 -10 -5 0 -7 5 -4 10 3 6 8 10 11 10 2 0 4 -4 4 -10z m2075 1 c3 -5 1 -12
-5 -16 -5 -3 -10 1 -10 9 0 18 6 21 15 7z m-40 -151 c3 -5 1 -10 -4 -10 -6 0
-11 5 -11 10 0 6 2 10 4 10 3 0 8 -4 11 -10z m5 -54 c0 -11 -19 -15 -25 -6 -3
5 1 10 9 10 9 0 16 -2 16 -4z m-2410 -10 c0 -3 -4 -8 -10 -11 -5 -3 -10 -1
-10 4 0 6 5 11 10 11 6 0 10 -2 10 -4z m8396 -71 c-8 -8 -18 -15 -22 -15 -5 0
-3 5 4 12 7 7 12 21 12 33 1 18 1 19 11 2 7 -13 6 -21 -5 -32z m-6 -35 c0 -5
-5 -10 -11 -10 -5 0 -7 5 -4 10 3 6 8 10 11 10 2 0 4 -4 4 -10z m-4573 -16
c-3 -3 -12 -4 -19 -1 -8 3 -5 6 6 6 11 1 17 -2 13 -5z m11807 -115 c19 -17 45
-46 56 -64 l21 -34 37 38 c30 31 49 41 96 51 80 16 128 8 175 -29 59 -47 91
-122 91 -211 0 -45 -6 -82 -16 -102 -25 -49 -93 -116 -129 -128 -23 -8 -42
-25 -60 -55 -14 -24 -30 -47 -36 -51 -6 -3 -3 5 6 20 10 15 15 29 11 33 -3 3
-1 12 4 18 8 9 2 14 -21 19 -17 3 -35 3 -40 0 -5 -3 -9 0 -9 7 0 7 -10 9 -25
7 -17 -4 -25 -1 -25 8 0 14 -11 18 -42 15 -14 -2 -18 5 -18 28 0 16 -5 33 -11
37 -7 4 -9 0 -5 -14 4 -12 2 -23 -5 -28 -7 -4 -9 -3 -6 3 10 16 -20 24 -35 10
-41 -39 -102 -58 -138 -44 -8 4 -41 16 -72 27 -102 37 -155 128 -151 254 2 41
10 71 27 100 50 85 106 115 218 116 61 0 71 -3 102 -31z m-7704 -15 c0 -2 -11
2 -25 8 -14 6 -25 15 -25 20 0 5 11 1 25 -8 14 -9 25 -18 25 -20z m8763 -25
c67 -34 137 -143 137 -213 0 -25 17 -36 56 -36 52 0 111 -48 154 -126 12 -23
33 -48 46 -55 15 -7 24 -21 24 -36 0 -14 6 -23 15 -23 20 0 19 -27 -1 -38 -13
-7 -14 -11 -4 -17 7 -4 16 -2 21 6 13 22 23 1 11 -25 -8 -19 -8 -26 1 -30 9
-5 9 -7 0 -12 -18 -8 -16 -24 2 -24 8 0 15 -5 15 -11 0 -6 -7 -9 -15 -5 -11 4
-15 -3 -16 -27 -1 -18 -3 -24 -6 -14 -4 16 -8 15 -26 -11 -12 -16 -28 -27 -36
-24 -8 3 -11 0 -7 -7 4 -6 0 -11 -9 -11 -9 0 -29 -9 -44 -20 -25 -17 -30 -18
-49 -4 -13 9 -22 11 -22 4 0 -14 -69 -10 -78 5 -4 6 -33 18 -64 28 -68 21
-122 76 -153 156 -17 44 -25 53 -55 61 -19 5 -39 10 -45 10 -13 1 -55 36 -55
47 0 9 -20 28 -60 56 -13 9 -21 17 -17 17 4 0 0 15 -10 33 -22 42 -33 164 -15
177 5 3 14 21 22 40 19 50 95 118 139 126 20 3 43 7 51 9 34 7 73 4 93 -6z
m-4523 -93 c0 -3 -4 -8 -10 -11 -5 -3 -10 -1 -10 4 0 6 5 11 10 11 6 0 10 -2
10 -4z m-12447 -23 c3 -5 -6 -9 -19 -9 -13 -1 -24 2 -24 7 0 11 37 12 43 2z
m-28 -104 c-4 -13 -1 -21 10 -25 13 -6 14 -8 3 -15 -24 -15 -29 -10 -26 30 2
21 7 37 11 34 4 -2 5 -13 2 -24z m13119 20 c11 17 29 13 22 -4 -3 -9 0 -15 9
-15 8 0 15 4 15 9 0 5 7 11 14 14 11 4 13 1 9 -10 -5 -13 -1 -15 22 -10 20 3
33 0 43 -11 10 -13 15 -14 18 -4 8 16 25 16 18 -1 -3 -10 4 -13 26 -12 18 1
37 -3 43 -10 7 -6 18 -10 26 -7 8 3 12 -1 9 -9 -6 -18 40 -41 65 -33 15 5 19
3 14 -9 -8 -22 40 -30 53 -8 5 9 10 11 10 5 0 -5 -7 -19 -15 -30 -20 -27 -19
-34 8 -35 16 -1 18 -2 5 -6 -21 -5 -24 -23 -5 -23 9 0 9 -2 0 -8 -15 -10 -1
-70 19 -85 10 -7 10 -10 1 -14 -7 -2 -13 -11 -13 -19 0 -9 5 -12 12 -8 8 5 9
2 5 -9 -3 -10 -3 -17 1 -17 9 0 8 -156 -2 -197 -4 -18 -11 -33 -16 -33 -4 0
-8 -6 -7 -12 1 -27 -28 -77 -50 -87 -13 -6 -23 -14 -23 -18 0 -5 -21 -20 -47
-33 -27 -14 -55 -33 -64 -42 -9 -10 -22 -18 -29 -18 -6 0 -23 -9 -37 -20 -14
-11 -36 -20 -49 -20 -13 0 -24 -6 -24 -12 0 -8 -3 -9 -8 -3 -10 14 -69 18 -76
6 -4 -6 -13 -8 -20 -5 -7 3 -18 -1 -24 -9 -14 -16 -88 -12 -109 5 -7 6 -13 8
-13 5 0 -3 -20 1 -45 9 -28 8 -45 9 -45 3 0 -6 -9 -7 -21 -4 -14 5 -19 3 -15
-3 4 -6 -2 -8 -14 -5 -25 7 -26 21 -2 39 15 13 14 13 -10 5 -20 -8 -29 -6 -38
5 -7 7 -21 14 -32 14 -10 0 -17 4 -14 9 3 5 -1 11 -9 15 -8 3 -15 16 -15 28 0
19 -2 20 -10 8 -8 -12 -10 -9 -10 12 0 17 -7 29 -17 32 -15 5 -18 19 -18 90 0
69 2 83 15 79 11 -3 10 -1 -2 10 -18 14 -15 28 5 23 7 -2 9 -1 5 1 -16 9 -7
21 22 27 17 3 30 10 30 15 0 6 11 21 23 35 27 29 30 54 10 78 -11 12 -11 18
-3 23 9 6 9 10 -1 16 -12 8 -12 10 0 18 7 5 10 14 7 20 -5 7 -2 10 6 9 9 -2
13 10 14 42 1 40 3 45 22 42 27 -4 28 6 5 25 -14 12 -12 11 8 0 31 -18 43 -12
28 14 -7 15 -6 17 6 13 8 -4 15 -1 15 6 0 7 7 10 15 6 8 -3 15 -1 15 4 0 11
36 50 47 50 3 0 15 7 25 16 14 14 20 14 33 4 8 -7 15 -9 15 -5 0 4 6 2 14 -4
12 -10 13 -9 9 7 -2 11 0 23 6 26 6 4 11 0 11 -9 0 -12 5 -15 16 -11 9 3 20 6
25 6 5 0 8 3 8 8 -3 18 2 26 10 13 6 -9 11 -10 15 -2z m-5863 -40 c64 -41 85
-66 103 -131 22 -79 20 -131 -9 -191 -33 -70 -79 -113 -148 -137 -71 -25 -112
-25 -180 0 -65 25 -98 57 -133 134 -23 51 -26 67 -21 126 8 99 47 153 147 205
37 19 141 35 175 27 11 -2 41 -17 66 -33z m7249 37 c0 -2 -7 -7 -16 -10 -8 -3
-12 -2 -9 4 6 10 25 14 25 6z m-14450 -30 c0 -11 -19 -15 -25 -6 -3 5 1 10 9
10 9 0 16 -2 16 -4z m-165 -16 c3 -5 1 -10 -4 -10 -6 0 -11 5 -11 10 0 6 2 10
4 10 3 0 8 -4 11 -10z m45 0 c8 -5 11 -10 5 -10 -5 0 -17 5 -25 10 -8 5 -10
10 -5 10 6 0 17 -5 25 -10z m12948 -19 c-7 -11 -16 -18 -20 -15 -4 3 -2 11 5
19 18 21 29 18 15 -4z m592 -1 c0 -5 -5 -10 -11 -10 -5 0 -7 5 -4 10 3 6 8 10
11 10 2 0 4 -4 4 -10z m-10880 -10 c0 -5 -5 -10 -11 -10 -5 0 -7 5 -4 10 3 6
8 10 11 10 2 0 4 -4 4 -10z m10965 -19 c3 -5 2 -12 -3 -15 -5 -3 -9 1 -9 9 0
17 3 19 12 6z m-10967 -12 c-2 -3 3 -13 10 -21 10 -12 9 -21 -3 -44 -11 -22
-12 -30 -2 -36 7 -4 7 -8 2 -8 -27 0 -34 23 -17 53 13 23 14 31 5 34 -7 3 -13
11 -13 20 0 8 5 13 11 11 6 -2 9 -6 7 -9z m10955 -56 c-7 -2 -19 -2 -25 0 -7
3 -2 5 12 5 14 0 19 -2 13 -5z m-7938 -96 c100 -50 145 -118 145 -218 0 -45 4
-56 32 -84 62 -64 85 -180 53 -269 -8 -22 -11 -44 -8 -49 3 -6 1 -7 -5 -3 -16
9 -15 -7 0 -22 9 -9 9 -12 1 -12 -8 0 -8 -8 2 -27 8 -15 12 -30 9 -35 -9 -13
4 -9 20 8 15 14 16 14 16 -1 0 -9 5 -13 10 -10 6 3 10 1 10 -5 0 -6 10 -10 22
-8 15 2 23 -2 23 -12 0 -10 10 -15 28 -15 15 1 27 -3 27 -9 0 -5 8 -15 18 -22
10 -8 12 -13 5 -14 -7 0 -13 -4 -13 -10 0 -5 8 -7 18 -3 9 3 14 3 10 -2 -11
-12 11 -35 28 -28 8 3 14 -1 14 -8 1 -10 5 -8 14 4 8 10 17 14 20 9 3 -5 22 6
42 24 19 19 44 34 55 34 11 0 19 7 19 16 0 8 4 13 9 9 5 -3 13 -1 16 5 5 8 11
8 20 0 9 -8 14 -6 18 9 4 16 15 20 66 23 34 1 63 -1 66 -7 3 -6 7 -5 11 3 8
17 25 15 18 -3 -4 -10 3 -16 23 -21 15 -4 32 -12 36 -18 6 -7 7 -5 4 6 -9 26
3 28 30 5 13 -12 34 -23 46 -24 12 0 38 -4 57 -9 47 -9 390 -12 396 -2 3 4 15
3 28 -2 13 -5 27 -6 31 -2 3 3 10 0 14 -7 5 -7 33 -15 67 -17 32 -3 61 -9 64
-14 4 -6 24 -11 46 -12 21 0 43 -3 49 -6 5 -3 25 -7 44 -9 20 -2 39 -9 43 -16
4 -7 8 -7 8 -2 0 6 9 11 19 11 11 0 19 -5 18 -11 -1 -5 6 -9 17 -7 10 2 15 -1
12 -6 -3 -6 5 -9 19 -8 14 0 25 4 25 8 0 3 17 4 37 3 21 -2 43 1 50 7 9 8 13
7 13 -2 0 -10 3 -10 15 0 12 10 15 9 15 -6 1 -17 2 -17 13 -4 15 19 81 25 70
7 -4 -8 -1 -7 10 1 9 8 21 11 26 8 5 -4 12 -3 15 2 3 5 24 7 47 5 23 -2 47 0
53 5 6 4 22 6 36 5 14 -2 45 -5 70 -7 25 -1 52 -5 60 -9 8 -3 22 -5 30 -6 32
0 86 -13 99 -24 8 -7 22 -11 33 -9 10 2 21 -4 24 -12 3 -9 17 -16 30 -16 13 0
24 -5 24 -11 0 -6 8 -8 19 -4 12 3 21 0 24 -10 6 -14 42 -13 87 2 30 10 105 9
112 -1 5 -7 8 -3 8 8 0 15 3 16 15 6 8 -6 19 -9 25 -5 5 3 15 3 22 -1 19 -12
108 -4 150 13 21 8 45 13 53 9 8 -3 15 -1 15 4 0 5 12 9 28 9 15 0 42 2 60 4
18 2 32 -1 32 -8 0 -13 62 -13 72 0 5 6 8 5 8 -4 0 -8 6 -11 16 -7 8 3 22 -1
31 -9 10 -10 19 -12 27 -7 6 5 20 6 31 1 11 -4 32 -8 48 -8 15 -1 27 -5 27
-11 0 -5 -8 -6 -17 -3 -16 6 -16 5 -4 -10 7 -9 25 -17 38 -17 21 0 23 -3 14
-14 -9 -11 -6 -15 19 -18 20 -3 30 0 30 9 0 7 4 13 10 13 5 0 7 -6 4 -13 -2
-7 5 -24 16 -37 l21 -24 -6 43 c-3 28 -2 40 6 36 6 -4 8 -13 5 -20 -2 -7 -1
-26 5 -42 l9 -28 -4 31 c-3 22 0 33 14 42 13 8 17 18 12 34 -5 21 -4 22 11 9
15 -12 17 -11 17 3 0 9 -4 16 -10 16 -5 0 -10 4 -10 10 0 5 7 7 15 4 9 -4 23
4 36 20 12 15 24 24 27 21 4 -3 0 -10 -8 -15 -13 -8 -12 -10 3 -10 15 0 22 11
18 33 -1 5 4 5 10 1 23 -14 71 -13 106 1 20 9 39 12 42 7 3 -4 15 -8 26 -8 25
0 129 -50 145 -69 7 -8 17 -12 23 -8 6 3 7 1 3 -5 -4 -7 -2 -12 3 -12 6 0 11
-7 11 -15 0 -8 7 -15 17 -15 9 0 13 -3 10 -7 -10 -9 14 -34 26 -26 6 4 7 1 2
-8 -13 -20 -13 -48 -1 -46 6 1 10 -6 10 -15 -1 -10 5 -18 15 -19 10 0 7 -4 -9
-11 -15 -6 -20 -12 -12 -15 6 -3 10 -9 6 -14 -3 -5 2 -12 11 -15 14 -6 14 -8
-2 -19 -16 -12 -16 -14 0 -39 10 -15 15 -31 12 -36 -3 -6 7 -22 24 -38 17 -15
30 -36 31 -47 0 -11 2 -36 4 -55 2 -19 7 -66 10 -104 4 -38 11 -77 17 -88 7
-14 7 -23 -1 -33 -8 -9 -8 -15 0 -20 6 -3 9 -30 7 -60 -2 -30 0 -52 5 -49 14
9 22 -27 10 -46 -9 -14 -6 -20 14 -30 13 -8 24 -19 24 -26 0 -8 6 -11 17 -7
13 5 15 2 11 -15 -8 -29 27 -31 42 -2 6 10 16 17 23 15 6 -3 26 8 44 25 18 16
40 30 50 30 23 0 73 22 73 33 0 4 -4 7 -10 7 -5 0 -10 7 -10 15 0 8 4 15 8 15
7 0 8 31 3 48 -1 1 -1 5 -1 10 0 7 4 8 34 11 9 1 12 8 8 23 -3 13 -1 19 5 15
16 -10 40 33 41 73 0 19 -5 38 -11 42 -8 5 -6 8 6 8 9 0 17 -4 17 -10 0 -5 5
-10 11 -10 6 0 8 9 4 20 -4 11 -2 20 4 20 6 0 11 7 11 15 0 8 10 24 23 35 20
20 20 21 2 15 -11 -3 -8 1 8 10 15 8 27 20 27 24 0 13 25 8 44 -8 11 -10 16
-10 16 -2 0 7 5 9 13 4 12 -8 17 -9 50 -11 11 -1 15 -7 11 -13 -4 -8 0 -9 15
-4 16 5 21 2 21 -10 0 -11 5 -15 14 -12 10 4 13 1 9 -9 -3 -7 0 -14 6 -14 6 0
12 -10 12 -22 1 -17 3 -18 6 -6 2 10 10 15 19 11 12 -4 12 -8 2 -21 -9 -11 -9
-13 -1 -9 6 4 14 3 18 -3 4 -6 10 -8 15 -5 5 3 16 -5 25 -17 13 -20 17 -21 25
-8 13 19 13 8 0 -24 -10 -27 -3 -33 18 -16 6 6 10 7 8 4 -3 -3 11 -20 29 -38
24 -24 33 -40 31 -59 -2 -18 1 -24 11 -20 9 4 16 -3 20 -16 3 -11 12 -21 19
-21 8 0 17 -7 20 -15 5 -12 9 -13 20 -4 12 10 13 9 8 -5 -3 -9 -2 -16 4 -16 5
0 12 7 16 15 3 8 10 15 15 15 6 0 7 -8 4 -17 -6 -17 -6 -17 10 -1 9 9 17 23
18 30 0 10 2 10 6 1 10 -26 23 -12 24 25 0 28 2 32 8 17 7 -17 8 -17 13 8 3
16 1 27 -6 27 -6 1 0 10 13 21 21 17 22 22 10 30 -13 8 -6 13 14 10 4 0 7 3 7
9 0 5 6 8 13 6 6 -1 9 -1 5 1 -14 8 -9 43 6 43 7 0 19 7 26 15 10 12 10 15 0
15 -9 0 -8 6 4 19 10 11 24 17 32 14 10 -4 12 0 8 11 -4 11 -1 16 10 16 9 0
16 4 16 10 0 5 7 7 15 4 8 -4 17 1 21 10 3 9 10 16 16 16 5 0 6 -4 3 -10 -3
-5 -2 -10 4 -10 5 0 11 8 13 17 4 20 78 30 78 10 0 -8 3 -7 9 2 8 12 14 12 39
2 17 -7 40 -10 51 -6 13 4 23 0 29 -12 9 -15 12 -15 27 -3 16 14 17 13 10 -10
-7 -22 -6 -23 8 -12 9 8 26 12 39 11 13 -2 34 4 48 14 13 9 30 17 36 17 6 0
24 10 40 23 30 24 132 59 146 51 4 -3 11 2 14 11 5 11 10 13 19 5 10 -8 16 -7
24 7 7 12 10 13 11 4 0 -10 8 -12 30 -7 23 4 29 3 24 -7 -4 -6 2 -4 13 6 11 9
22 14 25 11 9 -8 128 -13 123 -4 -3 4 3 7 13 6 9 0 16 5 14 12 -1 6 3 12 9 12
5 0 8 4 5 8 -3 5 5 8 17 8 18 -1 23 5 25 34 2 19 9 38 15 42 8 5 7 8 -3 8 -21
0 -55 57 -38 63 10 4 10 7 1 17 -10 11 -18 11 -38 2 -17 -8 -24 -8 -20 -2 10
16 14 60 5 55 -4 -3 -10 14 -14 36 -7 43 -19 61 -48 72 -22 8 -24 43 -3 51 8
3 15 1 15 -4 0 -6 -4 -10 -10 -10 -5 0 -10 -4 -10 -10 0 -5 5 -10 11 -10 16 0
41 29 34 40 -3 5 -1 10 4 10 6 0 11 -8 12 -17 0 -10 3 -13 5 -7 3 7 13 11 22
9 9 -1 11 0 5 2 -7 3 -13 11 -13 18 0 11 6 11 30 -1 17 -9 30 -19 30 -24 0 -4
9 -6 21 -3 15 4 22 0 26 -16 3 -12 13 -21 24 -21 13 0 19 -7 19 -22 0 -21 1
-21 13 -4 12 17 14 17 20 3 4 -11 15 -15 36 -12 23 2 28 0 24 -11 -6 -17 9
-18 25 -2 9 9 12 8 12 -5 0 -22 20 -22 21 1 1 15 2 15 6 -1 3 -10 11 -16 18
-13 7 2 21 -4 31 -15 21 -23 42 -25 50 -4 4 8 10 12 16 9 5 -3 7 -12 4 -20 -3
-8 -1 -14 4 -14 6 0 10 5 10 10 0 6 7 10 15 10 8 0 15 -7 15 -15 0 -8 4 -15
10 -15 5 0 7 -7 3 -16 -5 -13 -2 -15 17 -9 21 7 22 5 16 -19 -4 -15 -2 -26 4
-26 19 0 10 -18 -12 -25 -20 -6 -20 -8 -5 -12 9 -2 17 -9 17 -14 0 -6 -9 -7
-20 -4 -14 5 -20 2 -20 -9 0 -9 -4 -16 -10 -16 -5 0 -6 7 -3 17 4 10 2 14 -4
10 -19 -12 -23 -47 -5 -48 12 0 10 -4 -6 -12 -19 -8 -25 -8 -33 4 -6 10 -9 7
-9 -13 0 -34 -6 -35 -31 -5 -15 18 -18 19 -19 5 0 -12 -5 -15 -17 -11 -13 5
-15 2 -10 -11 5 -13 3 -17 -6 -13 -20 8 -12 -52 9 -67 16 -12 15 -13 -5 -19
-11 -3 -21 -12 -21 -21 0 -9 -4 -16 -10 -16 -5 0 -10 -11 -10 -24 0 -14 -5
-28 -11 -32 -8 -4 -7 -9 2 -15 12 -8 11 -11 -1 -20 -12 -8 -12 -12 -2 -16 10
-4 9 -9 -5 -20 -13 -10 -14 -16 -6 -19 9 -4 6 -18 -13 -51 -14 -25 -26 -58
-27 -74 -1 -16 -8 -31 -14 -34 -7 -2 -13 -13 -13 -24 0 -12 -11 -28 -25 -37
-24 -16 -24 -17 -8 -31 17 -13 16 -14 -4 -8 -14 4 -23 2 -23 -4 0 -6 -8 -11
-17 -11 -15 0 -16 -2 -3 -10 10 -6 11 -10 3 -10 -7 0 -13 -6 -13 -13 0 -13
-40 -43 -52 -39 -15 4 -88 -41 -88 -54 0 -8 -8 -14 -17 -14 -10 0 -27 -7 -37
-15 -11 -8 -35 -15 -54 -15 -18 0 -31 -4 -28 -9 3 -5 -3 -11 -14 -14 -10 -3
-20 -1 -22 4 -2 5 -15 2 -30 -5 -29 -15 -153 -19 -178 -6 -9 5 -31 1 -53 -9
l-38 -17 23 -25 c19 -20 23 -35 22 -82 0 -41 3 -57 13 -57 18 0 16 -10 -4 -26
-16 -12 -15 -14 15 -20 17 -3 32 -11 32 -16 0 -5 -4 -6 -10 -3 -5 3 -10 2 -10
-3 0 -16 13 -22 27 -11 9 9 13 8 13 0 0 -6 7 -11 16 -11 8 0 12 -4 9 -10 -3
-5 1 -10 10 -10 8 0 18 7 21 15 6 14 8 14 18 0 9 -12 22 -15 54 -11 26 3 42 1
42 -6 0 -7 5 -7 14 1 11 9 15 9 18 -1 7 -18 -2 -48 -14 -48 -6 0 -7 8 -3 18 5
14 4 15 -6 5 -19 -19 4 -41 25 -24 12 10 14 9 9 -7 -3 -14 1 -22 16 -27 25 -7
27 -20 6 -29 -8 -3 -15 -14 -15 -25 0 -11 -4 -23 -10 -26 -5 -3 -10 -16 -10
-27 0 -20 -25 -47 -45 -48 -5 0 -3 4 5 10 8 5 11 12 8 16 -10 9 -73 -48 -73
-66 0 -11 -10 -15 -35 -14 l-35 2 28 -12 c15 -7 25 -15 21 -19 -4 -3 -15 -2
-26 4 -11 6 -22 8 -26 5 -3 -3 0 -6 6 -6 7 0 12 -6 12 -13 0 -9 -12 -14 -32
-15 -17 0 -35 -8 -40 -16 -5 -8 -15 -13 -24 -9 -12 4 -14 -2 -11 -29 3 -29 1
-34 -17 -34 -15 1 -20 -4 -18 -17 3 -17 -7 -21 -40 -18 -10 1 -18 -4 -18 -13
0 -19 -16 -21 -23 -3 -4 7 -8 3 -12 -11 -6 -17 -15 -22 -41 -22 -22 0 -37 -6
-40 -15 -4 -8 -12 -15 -20 -15 -8 0 -14 -4 -14 -10 0 -5 7 -7 15 -4 8 4 15 2
15 -3 0 -12 -29 -38 -52 -46 -10 -4 -18 -11 -18 -16 0 -5 -8 -7 -19 -4 -10 2
-25 -3 -34 -11 -10 -11 -18 -12 -22 -6 -4 6 -15 8 -26 5 -12 -4 -19 -2 -19 7
0 10 -2 10 -8 1 -6 -10 -16 -10 -45 -1 -20 6 -37 15 -37 20 0 5 -16 6 -36 2
-26 -5 -39 -3 -45 7 -9 15 -19 9 -23 -16 -2 -17 -48 -45 -73 -45 -8 0 -11 -4
-8 -10 3 -5 1 -10 -6 -10 -6 0 -18 -8 -25 -18 -13 -16 -14 -16 -8 1 7 21 -14
23 -22 2 -4 -8 -10 -15 -16 -15 -5 0 -7 4 -4 9 3 4 -6 6 -20 3 -19 -3 -22 -7
-12 -14 9 -6 6 -8 -12 -7 -28 2 -59 -9 -78 -28 -9 -8 -19 -10 -30 -4 -9 5 -31
8 -49 6 -18 -1 -34 3 -37 10 -2 7 -18 15 -36 18 -17 4 -29 11 -25 17 3 5 -1
10 -9 10 -9 0 -16 7 -16 15 0 8 -6 12 -12 10 -7 -3 -22 8 -33 24 -11 17 -21
28 -24 26 -2 -3 -12 10 -21 28 -18 32 -17 53 1 42 13 -9 11 9 -2 22 -9 9 -6
11 12 7 14 -4 19 -2 13 3 -15 11 -37 54 -27 52 22 -4 32 2 27 16 -4 8 -1 15 5
15 6 0 11 11 11 24 0 14 5 28 10 31 6 3 10 16 10 28 0 14 -3 18 -8 10 -5 -7
-8 5 -9 29 -1 23 -7 45 -14 49 -7 4 -9 14 -6 24 4 9 3 14 -3 10 -6 -4 -18 7
-28 24 -9 17 -22 31 -28 31 -6 0 -29 19 -50 43 -22 24 -45 42 -52 39 -7 -2
-12 1 -12 6 0 6 -9 8 -20 5 -11 -3 -26 2 -35 11 -9 9 -21 14 -26 11 -5 -4 -9
1 -9 9 0 9 -6 16 -14 16 -8 0 -24 16 -36 34 -21 35 -51 53 -70 41 -5 -3 -10 1
-10 9 0 9 -6 16 -14 16 -7 0 -21 11 -30 25 -11 17 -23 24 -34 21 -9 -3 -30 1
-47 10 -24 13 -31 13 -40 2 -5 -8 -18 -12 -27 -10 -10 2 -18 -1 -18 -7 0 -6
-8 -11 -17 -11 -15 0 -15 -2 -4 -9 11 -7 7 -14 -20 -30 -19 -12 -44 -21 -56
-21 -13 0 -23 -5 -23 -11 0 -5 -5 -7 -10 -4 -6 4 -9 1 -8 -7 2 -8 -5 -12 -17
-10 -30 3 -46 3 -92 -1 -24 -3 -43 -2 -43 2 0 3 -19 7 -41 8 -23 0 -45 7 -49
13 -4 7 -13 9 -19 6 -11 -7 -89 30 -102 48 -4 5 -11 6 -17 2 -6 -3 -13 -2 -16
3 -3 5 -32 17 -64 27 -31 9 -61 20 -67 24 -5 3 -23 7 -40 9 -16 2 -32 6 -35
10 -3 3 -16 6 -30 7 -14 0 -36 4 -50 8 -20 6 -22 5 -10 -4 12 -9 10 -10 -10
-4 -14 4 -26 10 -28 14 -3 9 -61 0 -68 -11 -3 -5 -13 -5 -24 1 -13 7 -21 7
-25 0 -4 -6 -12 -7 -18 -3 -7 5 -38 17 -69 28 -32 10 -58 24 -58 31 0 8 -6 11
-15 8 -9 -4 -15 0 -15 9 0 8 -28 29 -64 46 -35 18 -73 41 -85 52 -11 11 -21
15 -21 9 0 -6 -8 -9 -18 -6 -37 12 -131 16 -137 6 -3 -5 -23 -10 -43 -11 -20
0 -32 -3 -25 -5 17 -7 -16 -44 -33 -37 -8 3 -17 -2 -20 -11 -3 -9 -10 -13 -15
-10 -5 3 -13 -5 -18 -18 -4 -13 -11 -22 -14 -21 -12 4 -67 -19 -67 -27 0 -4
-9 -6 -20 -3 -11 3 -26 0 -34 -6 -7 -6 -41 -14 -75 -17 -33 -4 -61 -11 -61
-15 0 -5 -13 -6 -30 -2 -16 3 -30 1 -30 -4 0 -5 -15 -10 -32 -12 -18 -1 -40
-4 -49 -4 -9 -1 -25 -11 -35 -23 -11 -12 -42 -26 -73 -33 -29 -6 -66 -21 -82
-32 -17 -11 -37 -22 -47 -23 -10 -2 -18 -13 -20 -29 -2 -15 -8 -27 -13 -27 -5
0 -9 -9 -9 -21 0 -11 5 -17 10 -14 6 3 10 0 10 -7 0 -7 9 -24 20 -38 18 -24
19 -24 33 -6 10 13 16 15 21 8 4 -7 2 -12 -3 -12 -6 0 -11 -4 -11 -10 0 -5 7
-10 15 -10 8 0 15 -5 15 -11 0 -6 9 -9 20 -6 11 3 18 1 14 -4 -3 -5 4 -9 15
-9 12 0 20 3 18 8 -1 4 1 7 5 7 13 0 39 45 33 55 -3 6 -1 10 4 10 6 0 11 -7
11 -15 0 -8 7 -15 15 -15 8 0 15 7 15 15 0 8 5 15 10 15 6 0 10 -2 10 -4 0 -2
3 -13 7 -23 3 -10 3 -15 -2 -11 -4 4 -14 3 -21 -3 -8 -6 -20 -9 -28 -6 -25 10
-26 -5 -2 -24 24 -19 26 -52 4 -65 -6 -4 -7 2 -3 17 7 21 6 22 -8 11 -13 -11
-16 -11 -20 0 -2 7 -3 1 -1 -14 2 -14 -3 -32 -11 -38 -21 -18 -18 -32 4 -25
13 4 23 0 30 -12 6 -10 11 -13 11 -6 0 6 -5 15 -12 19 -7 5 -4 10 10 15 12 5
22 16 22 25 0 14 2 15 17 3 13 -11 17 -11 20 -1 3 6 11 12 19 12 8 0 11 6 8
15 -7 18 17 20 34 3 9 -9 15 -8 27 8 12 15 16 16 23 6 7 -11 11 -10 16 5 7 17
8 17 18 -1 8 -15 12 -16 19 -5 6 9 9 10 9 2 0 -17 67 -56 82 -47 7 4 10 4 6
-1 -4 -4 0 -15 9 -24 12 -12 17 -13 21 -3 6 18 22 4 22 -19 0 -21 16 -26 23
-6 3 7 6 5 6 -5 1 -11 10 -18 24 -19 16 -1 17 -3 5 -6 -14 -3 -15 -8 -6 -23
13 -20 40 -16 31 6 -4 11 1 11 25 -2 31 -15 82 -11 82 7 0 5 6 9 14 9 8 0 27
5 43 11 15 7 38 13 50 15 12 1 38 10 57 19 19 9 39 14 45 11 5 -3 20 -2 34 3
17 7 41 6 73 -3 27 -7 54 -11 61 -9 6 2 23 -3 37 -13 14 -9 26 -13 26 -8 0 4
9 -2 20 -14 11 -12 33 -28 48 -36 21 -11 36 -34 56 -84 29 -73 30 -107 4 -171
-6 -14 -12 -28 -13 -31 -12 -37 -32 -62 -76 -100 -29 -25 -57 -50 -63 -56 -6
-6 -17 -9 -25 -6 -9 3 -11 0 -6 -8 5 -9 2 -10 -15 -5 -16 5 -20 4 -15 -5 5 -9
2 -10 -14 -5 -13 4 -21 2 -21 -5 0 -7 -8 -9 -20 -5 -11 4 -20 2 -20 -4 0 -6
-6 -8 -14 -5 -8 3 -30 -1 -48 -10 -18 -9 -50 -18 -70 -20 -21 -2 -42 -7 -47
-10 -5 -4 -21 -2 -35 4 -19 7 -26 6 -26 -3 0 -8 -3 -9 -8 -1 -10 16 -51 36
-79 39 -13 1 -30 11 -38 21 -8 11 -15 16 -15 12 0 -12 -100 88 -100 101 0 6
-6 11 -14 11 -7 0 -21 11 -30 25 -9 14 -25 25 -36 25 -26 0 -48 39 -29 51 13
8 5 13 -13 10 -13 -2 -9 47 5 52 8 4 9 6 0 6 -6 1 -19 -6 -27 -15 -15 -14 -16
-13 -14 6 2 14 -6 28 -22 38 -20 14 -23 14 -16 2 7 -12 6 -13 -5 -2 -19 17
-29 15 -23 -5 3 -10 -1 -7 -10 7 -12 21 -16 22 -21 9 -4 -11 -13 -15 -27 -11
-14 3 -26 -2 -36 -14 -12 -15 -14 -16 -9 -2 4 12 0 18 -16 20 -12 2 -23 9 -23
16 -1 6 -2 17 -3 22 0 6 -14 10 -31 10 -23 0 -30 -4 -30 -20 0 -11 -4 -20 -8
-20 -4 0 -19 -18 -32 -40 -14 -21 -32 -38 -40 -37 -10 1 -14 -5 -12 -17 2 -10
-1 -15 -7 -12 -5 4 -15 -3 -21 -14 -6 -11 -19 -20 -30 -20 -10 0 -22 -5 -26
-11 -3 -6 -14 -9 -24 -6 -13 3 -17 0 -13 -10 5 -12 -1 -13 -33 -6 -60 12 -144
9 -154 -7 -13 -21 -70 -35 -130 -33 -56 3 -127 9 -145 13 -5 1 -20 1 -33 0
-13 -1 -29 4 -37 10 -9 7 -15 8 -20 0 -9 -15 -25 -12 -25 5 0 8 -3 16 -7 16
-40 7 -75 9 -178 13 -66 2 -136 8 -156 13 -51 14 -119 45 -119 55 0 4 -3 7 -7
7 -22 -4 -33 4 -52 33 -16 25 -21 28 -21 14 0 -16 -3 -15 -20 7 -11 14 -20 29
-20 34 0 4 -13 14 -30 21 -16 8 -30 20 -30 28 0 8 -11 19 -24 24 -13 4 -26 20
-30 34 -3 14 -10 25 -14 25 -4 -1 -18 -1 -31 0 -20 1 -22 5 -17 26 6 23 4 24
-26 20 -26 -4 -29 -3 -13 4 16 8 17 10 3 10 -9 1 -20 10 -23 21 -7 22 -31 27
-38 8 -4 -8 -6 -7 -6 4 -1 9 -7 19 -13 22 -7 3 -2 4 12 2 14 -2 19 -1 13 1 -7
3 -13 9 -13 14 0 5 -9 9 -21 9 -12 0 -19 5 -17 13 2 6 -9 24 -24 39 -15 15
-28 21 -28 15 0 -7 -13 2 -29 18 -16 17 -26 34 -23 39 3 5 -2 7 -11 3 -11 -4
-14 -2 -11 7 3 8 -4 21 -16 29 -15 10 -19 20 -14 29 5 8 -1 7 -18 -4 -30 -20
-47 -11 -18 9 19 13 19 40 0 28 -5 -3 -11 3 -13 12 -3 13 -5 12 -6 -5 0 -13
-5 -20 -11 -17 -6 4 -4 20 5 43 14 34 14 36 -1 17 -11 -14 -18 -16 -21 -7 -3
6 -9 12 -15 12 -6 0 -5 -6 2 -15 14 -17 8 -31 -9 -20 -27 16 -3 65 31 65 10 0
18 5 18 11 0 5 -10 9 -22 7 -11 -2 -23 2 -25 8 -2 6 3 11 12 12 8 1 22 3 30 4
10 1 15 13 16 32 0 17 3 25 6 19 8 -20 23 -15 23 7 0 11 5 20 12 20 6 0 22 10
35 22 18 17 26 19 35 10 17 -17 26 -15 24 6 -1 11 5 16 17 14 9 -2 25 1 34 7
12 6 21 5 30 -7 12 -16 13 -15 11 2 -2 10 3 21 10 23 7 3 10 -1 6 -11 -4 -10
-1 -16 10 -16 10 0 13 6 10 15 -4 8 -1 15 5 15 6 0 11 -7 11 -16 0 -12 5 -15
23 -9 12 4 31 8 42 10 29 4 55 16 55 26 0 4 -7 6 -15 3 -8 -4 -15 -1 -15 6 0
8 10 9 30 5 19 -4 30 -3 30 4 0 6 12 11 28 11 21 0 24 -2 12 -10 -9 -6 -10
-10 -3 -10 6 0 22 14 36 31 17 23 32 30 58 31 19 1 29 3 22 5 -7 2 -9 11 -6
19 3 8 0 14 -6 14 -6 0 -11 5 -11 10 0 6 9 10 20 10 11 0 20 5 20 10 0 6 -4
10 -10 10 -5 0 -10 10 -10 23 1 20 2 21 14 5 7 -10 18 -18 24 -18 11 0 25 30
17 38 -3 3 -5 -1 -5 -8 0 -32 -13 3 -16 42 -4 64 -6 72 -18 80 -8 5 -7 8 2 8
6 0 12 5 12 11 0 6 -7 8 -16 5 -9 -3 -12 -2 -9 5 4 5 4 17 1 26 -6 14 -8 14
-21 -3 -13 -16 -14 -16 -9 -1 3 9 2 17 -4 17 -6 0 -8 9 -5 20 4 15 -1 21 -23
26 -33 8 -64 33 -64 52 0 9 -7 11 -19 7 -14 -4 -19 -1 -17 12 0 10 -5 17 -13
15 -8 -2 -11 3 -8 13 4 10 0 15 -12 15 -10 0 -22 7 -25 16 -4 10 -14 14 -25
11 -20 -5 -51 24 -51 48 0 9 -6 12 -15 9 -9 -4 -15 0 -15 9 0 8 -7 17 -15 21
-8 3 -15 15 -15 26 0 11 -7 20 -15 20 -9 0 -15 9 -15 25 0 16 -6 25 -15 25 -9
0 -15 6 -14 13 5 22 -13 97 -22 97 -5 0 -11 11 -14 23 -5 18 -13 24 -36 24
-35 0 -49 11 -29 23 8 5 11 13 6 17 -5 4 -11 2 -13 -4 -3 -7 -11 -13 -19 -13
-37 0 -96 -49 -139 -116 -69 -107 -175 -159 -310 -152 -184 11 -284 118 -273
293 4 60 38 150 66 171 8 5 13 17 12 25 -6 40 1 65 22 74 18 8 23 19 24 52 1
48 0 51 -44 82 -26 18 -31 26 -20 32 12 8 4 13 -15 10 -5 -1 -6 3 -2 9 4 6 1
18 -7 27 -11 14 -11 16 2 9 11 -6 11 -4 -1 6 -9 7 -16 18 -16 23 0 17 -106 65
-133 61 -14 -3 -52 -14 -85 -26 -69 -25 -117 -23 -194 11 -60 25 -91 59 -119
126 -58 139 -1 283 136 340 59 25 153 20 211 -10 l49 -25 48 24 c26 13 54 24
61 24 8 0 32 9 53 20 81 42 171 44 245 7z m7945 13 c0 -5 -4 -10 -10 -10 -5 0
-10 5 -10 10 0 6 5 10 10 10 6 0 10 -4 10 -10z m-13525 -10 c3 -5 1 -10 -4
-10 -6 0 -11 5 -11 10 0 6 2 10 4 10 3 0 8 -4 11 -10z m16115 -14 c0 -3 -4 -8
-10 -11 -5 -3 -10 -1 -10 4 0 6 5 11 10 11 6 0 10 -2 10 -4z m30 -5 c0 -6 -4
-12 -8 -15 -5 -3 -9 1 -9 9 0 8 4 15 9 15 4 0 8 -4 8 -9z m1327 -139 c-13 -16
-30 -1 -21 21 4 13 9 14 19 4 9 -9 10 -16 2 -25z m-4867 -162 c0 -5 -5 -10
-11 -10 -5 0 -7 5 -4 10 3 6 8 10 11 10 2 0 4 -4 4 -10z m1383 -71 c32 -7 47
-16 48 -27 0 -10 3 -12 5 -5 6 14 31 6 57 -18 24 -22 57 -87 45 -91 -5 -2 -6
-13 0 -28 13 -35 -17 -67 -47 -50 -12 6 -27 7 -34 3 -6 -4 -21 -8 -32 -8 -11
0 -25 -11 -32 -25 -10 -21 -13 -22 -18 -7 -6 13 -11 14 -26 6 -13 -6 -19 -6
-19 1 0 5 6 10 13 11 9 0 9 2 -1 6 -7 3 -22 -3 -34 -13 -21 -20 -108 -27 -108
-10 0 5 -6 3 -14 -3 -8 -7 -17 -8 -20 -3 -3 6 -22 13 -41 16 -30 6 -34 10 -31
29 11 54 15 104 9 111 -10 10 -11 46 -1 46 4 0 8 -6 8 -12 0 -9 3 -8 10 2 6 9
5 17 -3 22 -9 6 -8 8 3 9 46 3 63 7 69 17 18 29 115 40 194 21z m77 -353 c46
-16 120 -64 120 -78 0 -5 6 -6 13 -2 6 4 9 4 5 0 -4 -5 2 -23 12 -41 19 -35
53 -154 49 -177 -3 -20 13 -79 20 -73 3 3 4 23 3 43 -2 28 0 33 8 22 8 -13 11
-11 16 8 4 14 12 21 20 18 7 -3 16 -1 20 5 3 6 12 8 20 5 16 -6 65 14 59 24
-2 4 10 6 28 5 18 -2 38 3 46 9 18 14 101 15 101 1 0 -5 4 -3 10 5 5 8 12 11
16 8 3 -4 15 3 26 15 l19 22 -6 -25 c-5 -20 -4 -22 5 -10 8 11 13 12 16 3 3
-7 13 -9 21 -6 12 5 15 2 10 -10 -4 -11 -1 -17 8 -17 8 0 15 -4 15 -10 0 -12
48 -60 60 -60 6 0 10 -9 10 -21 0 -15 5 -19 15 -15 8 3 15 1 15 -3 0 -5 -6
-11 -12 -14 -10 -3 -10 -7 0 -20 8 -9 11 -20 8 -26 -3 -5 -2 -11 3 -13 5 -1
11 -19 13 -38 2 -20 13 -44 26 -56 12 -12 22 -28 22 -35 0 -11 2 -11 10 1 8
12 10 11 10 -7 0 -12 15 -39 32 -59 32 -36 32 -37 8 -30 -14 3 -19 3 -12 0 6
-3 12 -12 12 -19 0 -8 7 -11 20 -8 15 4 19 2 14 -10 -3 -9 1 -30 9 -47 9 -16
11 -30 6 -30 -17 0 -9 -20 9 -21 14 0 14 -2 -3 -9 -18 -7 -18 -8 8 -15 28 -7
37 -37 16 -51 -8 -5 -8 -9 1 -14 9 -6 5 -18 -14 -46 -14 -22 -22 -40 -17 -42
5 -2 6 -12 4 -23 -5 -16 -8 -18 -14 -7 -6 9 -9 7 -9 -9 0 -16 4 -21 15 -17 8
4 15 1 15 -5 0 -6 -5 -11 -11 -11 -8 0 -7 -6 2 -17 8 -10 9 -14 2 -10 -8 5
-11 0 -10 -13 1 -11 5 -20 9 -20 4 0 8 -7 8 -16 0 -8 -4 -13 -8 -10 -5 3 -6
-9 -4 -26 3 -21 7 -26 13 -17 6 10 9 10 9 2 0 -6 -5 -15 -10 -18 -7 -4 -7 -12
0 -25 7 -13 6 -20 -3 -23 -9 -3 -9 -7 1 -19 10 -13 10 -18 0 -29 -7 -8 -13
-18 -14 -24 -3 -23 -17 -55 -25 -55 -5 0 -9 -7 -9 -15 0 -8 -4 -15 -10 -15 -5
0 -12 -11 -16 -25 -3 -14 -10 -25 -16 -25 -5 0 -7 -4 -4 -9 3 -5 -2 -12 -11
-16 -10 -3 -19 -1 -21 4 -6 18 -20 12 -18 -6 0 -10 -5 -17 -12 -15 -7 1 -15
-5 -18 -13 -4 -8 -17 -15 -30 -15 -13 0 -24 -4 -24 -9 0 -5 -7 -12 -16 -15 -8
-3 -12 -2 -9 4 3 6 0 10 -9 10 -8 0 -16 -5 -18 -12 -3 -7 -22 5 -46 29 -23 22
-56 44 -74 49 -18 6 -33 16 -33 24 0 8 -6 19 -12 23 -7 4 -13 15 -13 22 0 8
-6 15 -12 15 -9 0 -9 3 1 9 12 8 12 12 2 25 -7 9 -11 22 -8 30 3 8 1 17 -6 20
-8 3 -9 7 -2 13 12 9 14 113 3 113 -5 0 -8 4 -8 10 0 5 6 9 12 7 8 -1 13 10
14 28 0 17 6 43 12 58 7 16 9 33 6 39 -4 6 0 14 7 19 12 8 12 11 -1 19 -11 7
-11 10 -2 10 7 0 12 10 11 23 -4 41 1 58 14 52 6 -4 5 -1 -4 7 -9 7 -15 23
-14 36 1 12 -2 22 -7 22 -4 0 -8 7 -8 15 0 8 -7 15 -16 15 -12 0 -15 6 -11 21
4 15 1 19 -11 17 -18 -3 -45 18 -55 45 -3 9 -13 17 -22 17 -8 0 -15 5 -15 11
0 6 -9 8 -22 3 -12 -3 -34 -8 -48 -9 -15 -1 -31 -5 -37 -8 -13 -8 -53 25 -54
44 -1 8 -7 -13 -14 -46 -9 -41 -14 -141 -14 -310 -1 -383 -2 -454 -10 -483 -4
-15 -6 -43 -4 -62 4 -40 4 -31 -1 -140 -2 -47 -4 -95 -5 -107 -1 -13 -7 -23
-16 -23 -8 0 -15 -2 -15 -5 0 -12 35 -75 42 -75 4 0 8 -22 8 -50 0 -27 -4 -50
-10 -50 -5 0 -7 -7 -4 -15 4 -9 0 -15 -10 -15 -9 0 -16 -8 -17 -17 0 -12 -2
-14 -6 -5 -4 10 -9 8 -20 -7 -8 -12 -21 -21 -30 -21 -12 0 -11 -5 7 -20 19
-16 21 -22 10 -35 -7 -9 -8 -15 -2 -15 6 0 13 -14 17 -30 4 -17 11 -30 16 -30
5 0 9 -6 9 -13 0 -7 10 -24 22 -37 12 -13 23 -33 23 -45 1 -11 6 -29 13 -41
13 -25 13 -84 -1 -84 -6 0 -7 -16 -3 -39 4 -27 2 -41 -7 -45 -9 -5 -9 -7 1
-12 18 -8 15 -24 -5 -25 -11 0 -13 -3 -5 -6 9 -4 9 -10 -2 -31 -8 -15 -17 -35
-20 -44 -3 -11 -11 -15 -21 -12 -9 4 -15 1 -15 -9 0 -8 -6 -20 -14 -26 -15
-13 -106 -31 -176 -36 -26 -2 -57 -8 -70 -15 -12 -6 -32 -9 -45 -6 -13 3 -27
1 -30 -5 -4 -6 -14 -8 -22 -5 -8 3 -19 3 -25 0 -6 -4 -25 -8 -43 -9 -18 -1
-47 -8 -64 -15 -25 -10 -31 -18 -31 -42 0 -25 -3 -29 -17 -22 -10 4 -43 9 -75
10 -44 1 -57 -2 -61 -15 -3 -9 -8 -24 -12 -33 -5 -13 -2 -18 9 -18 9 0 16 -5
16 -11 0 -6 -7 -9 -15 -5 -18 6 -19 -7 -4 -35 6 -12 17 -18 24 -15 8 3 17 0
21 -6 5 -7 2 -8 -6 -3 -10 6 -12 4 -7 -8 3 -8 -1 -21 -9 -27 -18 -16 -18 -39
1 -46 8 -4 15 -14 15 -23 0 -11 11 -4 35 21 19 21 35 32 35 25 0 -35 -84 -102
-153 -122 -42 -13 -61 -13 -109 -3 -50 10 -61 10 -69 -2 -7 -11 -8 -7 -3 13 7
29 -12 39 -22 12 -4 -8 -10 -12 -15 -9 -5 3 -9 0 -9 -5 0 -6 5 -11 10 -11 6 0
10 -9 10 -20 0 -12 10 -24 23 -30 12 -5 15 -9 7 -9 -23 -1 -35 11 -51 46 -10
25 -18 31 -32 27 -15 -5 -18 -2 -13 14 5 16 2 21 -16 24 -13 2 -22 9 -21 15 2
7 -3 10 -10 7 -8 -3 -33 7 -58 22 -24 14 -36 23 -26 20 23 -7 22 -4 -8 28 -14
15 -25 34 -25 42 0 7 -4 14 -10 14 -5 0 -10 7 -10 15 0 8 -3 14 -7 14 -19 -3
-27 2 -15 10 11 7 11 11 -2 24 -9 8 -16 22 -16 29 0 10 -3 9 -10 -2 -5 -8 -10
-12 -12 -10 -2 3 -8 14 -15 25 -6 11 -16 19 -22 17 -6 -1 -11 2 -11 8 0 5 -9
10 -19 10 -11 0 -23 5 -26 10 -4 6 -24 18 -46 27 -21 8 -39 21 -39 29 0 8 -5
14 -11 14 -5 0 -7 5 -3 12 5 8 2 9 -10 5 -16 -6 -18 -3 -12 30 6 34 5 36 -7
21 -8 -10 -18 -18 -23 -18 -4 0 -3 5 4 12 16 16 15 29 0 27 -7 -1 -22 -1 -33
0 -17 1 -18 3 -5 11 13 8 12 10 -5 11 -17 1 -17 2 -2 6 24 6 21 21 -5 25 -17
2 -23 9 -22 28 1 14 -4 29 -10 33 -8 6 -8 10 2 14 6 2 12 15 12 28 0 25 35 40
65 29 10 -4 15 -2 13 7 -2 9 9 15 31 17 21 2 50 17 74 37 22 19 43 32 47 30
11 -7 69 62 98 117 16 29 42 62 58 73 18 12 30 28 28 38 -1 9 3 17 9 17 5 0 8
3 4 6 -3 4 1 14 10 22 15 15 15 17 -3 22 -40 12 -74 34 -74 48 0 9 -3 13 -6 9
-8 -7 -34 17 -34 32 0 6 -6 11 -12 11 -7 0 -26 28 -42 63 -24 50 -30 76 -30
132 0 39 6 83 13 100 8 17 13 33 13 38 -1 4 5 24 13 43 8 20 12 40 9 45 -3 5
0 9 5 9 6 0 11 8 11 17 0 9 9 26 19 37 11 12 21 27 23 35 7 29 44 93 52 90 4
-2 15 10 25 26 9 17 27 48 41 70 14 22 24 44 22 49 -2 5 3 13 10 17 10 7 10 9
-2 9 -12 0 -12 2 -2 8 15 10 26 172 11 172 -5 0 -9 8 -9 18 0 15 2 15 11 2 9
-12 9 -11 3 5 -4 11 -9 38 -10 60 -1 21 -6 41 -12 43 -5 1 -8 12 -5 23 4 12
-2 29 -15 42 -22 23 -38 71 -33 100 3 21 -15 23 -23 2 -3 -9 -12 -12 -21 -8
-12 4 -13 8 -5 13 15 9 15 21 0 30 -6 4 -13 36 -15 71 -2 35 -6 71 -8 79 -2 8
-8 34 -12 58 -13 74 -26 45 -26 -60 0 -57 0 -111 0 -121 0 -9 -4 -15 -10 -12
-5 4 -9 1 -9 -4 0 -6 5 -11 10 -11 6 0 10 -4 10 -10 0 -5 -6 -10 -14 -10 -15
0 -36 70 -36 119 0 17 -4 31 -9 31 -4 0 -6 10 -4 23 4 25 -3 37 -31 53 -26 14
-34 36 -10 27 11 -4 15 -2 12 7 -2 7 -12 14 -22 16 -31 4 -30 14 2 20 36 7 41
19 12 27 -25 6 -26 40 -2 58 14 11 15 11 5 -1 -15 -17 -17 -40 -3 -40 6 0 10
7 10 16 0 10 6 14 15 10 25 -9 45 5 45 33 1 23 3 21 15 -12 18 -51 23 -55 30
-21 19 85 91 217 147 271 64 62 101 71 333 78 116 4 212 9 215 12 11 11 352
-8 390 -21z m65 -6 c3 -6 -1 -7 -9 -4 -18 7 -21 14 -7 14 6 0 13 -4 16 -10z
m-1923 -72 c-7 -7 -12 -8 -12 -2 0 14 12 26 19 19 2 -3 -1 -11 -7 -17z m-57
-28 c-3 -5 -10 -10 -16 -10 -5 0 -9 5 -9 10 0 6 7 10 16 10 8 0 12 -4 9 -10z
m45 0 c0 -5 -4 -10 -10 -10 -5 0 -10 5 -10 10 0 6 5 10 10 10 6 0 10 -4 10
-10z m30 -5 c11 -13 10 -14 -4 -9 -9 3 -16 10 -16 15 0 13 6 11 20 -6z m51
-32 c13 -17 13 -17 -6 -3 -11 8 -22 16 -24 17 -2 2 0 3 6 3 6 0 17 -8 24 -17z
m-111 -128 c0 -14 -4 -25 -10 -25 -5 0 -10 11 -10 25 0 14 5 25 10 25 6 0 10
-11 10 -25z m-50 5 c0 -5 -2 -10 -4 -10 -3 0 -8 5 -11 10 -3 6 -1 10 4 10 6 0
11 -4 11 -10z m570 -21 c0 -6 -4 -7 -10 -4 -5 3 -10 11 -10 16 0 6 5 7 10 4 6
-3 10 -11 10 -16z m-505 -29 c3 -5 1 -10 -4 -10 -6 0 -11 5 -11 10 0 6 2 10 4
10 3 0 8 -4 11 -10z m745 0 c0 -5 -4 -10 -9 -10 -6 0 -13 5 -16 10 -3 6 1 10
9 10 9 0 16 -4 16 -10z m-125 -30 c3 -5 2 -10 -4 -10 -5 0 -13 5 -16 10 -3 6
-2 10 4 10 5 0 13 -4 16 -10z m-31 -40 c-5 -5 -10 3 -11 18 -1 22 0 24 9 8 6
-10 6 -22 2 -26z m76 -11 c0 -5 -4 -9 -10 -9 -5 0 -10 7 -10 16 0 8 5 12 10 9
6 -3 10 -10 10 -16z m-11283 -63 c79 -40 138 -147 137 -246 -1 -83 -16 -129
-59 -175 -65 -68 -201 -104 -276 -72 -83 34 -157 135 -174 234 -7 46 9 141 31
186 17 32 73 70 129 85 52 15 175 8 212 -12z m14975 -41 c3 3 16 1 29 -4 30
-11 121 -20 269 -27 63 -3 130 -9 147 -14 20 -5 35 -5 39 1 3 6 15 7 25 4 11
-4 51 -8 89 -10 38 -2 74 -6 80 -10 5 -3 10 0 10 7 0 8 3 9 8 3 11 -15 88 -55
96 -50 3 3 4 2 1 -1 -6 -9 21 -34 36 -34 7 0 10 -3 6 -6 -3 -3 5 -16 19 -29
13 -12 24 -27 24 -32 0 -6 9 -20 20 -33 11 -13 20 -33 20 -45 0 -13 7 -25 15
-29 17 -6 20 -36 4 -36 -7 0 -4 -11 6 -26 9 -15 17 -41 18 -60 1 -19 5 -31 11
-28 6 3 4 0 -5 -8 -11 -9 -13 -21 -8 -40 5 -18 3 -28 -4 -28 -5 0 -7 -3 -4 -7
4 -3 2 -12 -4 -20 -9 -10 -8 -13 0 -13 7 0 9 -5 5 -12 -11 -17 -12 -68 -2 -68
5 0 7 -4 4 -8 -2 -4 -1 -14 4 -22 9 -14 -14 -58 -37 -73 -7 -4 -13 -17 -13
-27 0 -11 -5 -20 -11 -20 -6 0 -8 -8 -4 -19 3 -11 -1 -25 -9 -34 -8 -8 -12
-17 -9 -21 4 -3 1 -6 -6 -6 -7 0 -11 -6 -8 -14 3 -8 -1 -17 -9 -20 -9 -3 -12
-10 -9 -16 3 -5 1 -10 -4 -10 -6 0 -11 -8 -11 -18 0 -10 -11 -28 -25 -40 -14
-12 -25 -27 -25 -33 0 -6 -5 -9 -12 -7 -6 2 -20 -4 -30 -14 -10 -10 -27 -18
-39 -18 -11 0 -34 -9 -50 -21 -16 -11 -29 -18 -29 -14 0 3 -15 -2 -32 -12 -18
-9 -37 -17 -41 -18 -5 0 -16 -10 -25 -21 -55 -70 -367 -81 -532 -19 -92 34
-119 38 -232 31 -62 -4 -157 -8 -212 -9 -96 -3 -99 -3 -125 -34 -14 -17 -36
-48 -49 -70 -29 -48 -100 -94 -155 -100 -62 -7 -152 30 -202 82 -22 23 -57 49
-77 59 -20 9 -40 21 -43 26 -3 6 -14 10 -24 10 -58 0 -115 97 -132 226 -16
125 3 422 30 459 4 5 8 30 9 53 0 24 7 51 14 60 11 13 10 15 -4 9 -10 -3 -18
-2 -18 3 0 6 5 10 11 10 5 0 7 6 3 13 -6 10 -4 10 7 0 17 -17 37 -17 21 -1
-17 17 -15 31 4 24 12 -4 15 -2 10 9 -3 8 6 26 19 41 14 15 25 30 25 34 0 5
16 24 36 44 19 19 33 40 29 46 -3 5 -4 10 -1 10 3 0 10 -10 17 -21 8 -15 8
-19 0 -15 -6 4 -11 2 -11 -3 0 -19 22 -12 27 9 3 11 14 20 24 20 11 0 19 4 19
9 0 8 32 22 55 25 6 1 13 8 17 16 5 12 7 12 7 -2 1 -21 17 -24 24 -5 3 9 9 9
26 -1 18 -10 21 -10 21 3 0 8 5 15 10 15 6 0 10 -5 10 -11 0 -6 7 -3 16 6 9 9
28 15 43 14 14 -2 36 2 48 9 12 7 29 12 37 12 8 0 19 8 25 17 5 10 13 15 17
11 4 -5 13 -3 20 3 7 6 43 13 80 15 36 2 70 7 75 10 5 3 9 0 9 -6 0 -8 9 -10
25 -6 14 4 38 0 53 -7 28 -14 65 -15 93 -3 15 7 50 12 92 15 10 0 16 5 13 9
-6 10 30 9 40 -1 4 -4 13 -2 21 4 8 8 13 8 13 1 0 -13 48 -8 62 6 8 8 16 8 23
2 7 -5 14 -7 17 -5z m-11372 -235 c0 -6 -14 -13 -32 -17 -27 -5 -29 -7 -13
-14 11 -3 24 -3 30 2 12 12 25 11 25 0 0 -5 -15 -13 -32 -17 -18 -4 -27 -9
-20 -12 10 -3 8 -8 -5 -18 -17 -12 -16 -13 9 -14 19 0 26 -4 22 -14 -3 -8 4
-16 18 -20 14 -5 18 -9 10 -13 -7 -3 -25 3 -40 13 -15 10 -30 19 -34 19 -5 0
-8 4 -8 8 1 4 -9 16 -21 26 -23 19 -19 41 8 41 9 0 13 6 10 15 -5 11 0 13 25
8 22 -4 29 -3 24 5 -4 7 -1 12 8 12 9 0 16 -5 16 -10z m-1395 -21 c58 -15 130
-67 156 -112 13 -24 23 -64 27 -102 11 -138 -92 -258 -233 -272 -79 -8 -117 3
-169 49 -66 57 -99 126 -100 208 -1 83 23 132 88 182 73 54 147 70 231 47z
m-1242 -77 c86 -38 145 -158 131 -268 -13 -109 -114 -194 -239 -202 -55 -4
-64 -1 -110 30 -118 79 -164 210 -120 339 38 108 207 159 338 101z m2672 -12
c13 -6 15 -9 5 -9 -8 0 -22 4 -30 9 -18 12 -2 12 25 0z m1255 -33 c0 -5 -4 -5
-10 -2 -5 3 -10 14 -10 23 0 15 2 15 10 2 5 -8 10 -19 10 -23z m-1340 13 c0
-5 -4 -10 -10 -10 -5 0 -10 5 -10 10 0 6 5 10 10 10 6 0 10 -4 10 -10z m127
-6 c-3 -3 -12 -4 -19 -1 -8 3 -5 6 6 6 11 1 17 -2 13 -5z m1261 -12 c2 -7 -5
-12 -17 -12 -14 0 -19 5 -14 15 6 17 25 15 31 -3z m-6153 -26 c68 -41 125
-142 125 -225 0 -58 -28 -138 -61 -176 -67 -76 -206 -96 -289 -41 -45 29 -95
100 -110 156 -18 64 -12 158 12 207 37 75 91 101 212 102 56 1 77 -4 111 -23z
m6150 -6 c3 -5 1 -10 -4 -10 -6 0 -11 5 -11 10 0 6 2 10 4 10 3 0 8 -4 11 -10z
m75 -145 c0 -8 -2 -15 -4 -15 -2 0 -6 7 -10 15 -3 8 -1 15 4 15 6 0 10 -7 10
-15z m-4757 -102 c43 -22 87 -73 115 -133 21 -43 26 -70 26 -125 -1 -86 -19
-129 -77 -182 -54 -50 -161 -88 -217 -78 -120 23 -218 141 -228 277 -9 122 30
194 127 236 76 33 195 35 254 5z m4132 -253 c3 -5 1 -10 -4 -10 -6 0 -11 5
-11 10 0 6 2 10 4 10 3 0 8 -4 11 -10z m-21 -29 c-2 -3 -12 3 -22 13 -16 17
-16 18 5 5 12 -7 20 -15 17 -18z m-37 -43 c-3 -8 -6 -5 -6 6 -1 11 2 17 5 13
3 -3 4 -12 1 -19z m4023 -118 c0 -5 -5 -10 -11 -10 -5 0 -7 5 -4 10 3 6 8 10
11 10 2 0 4 -4 4 -10z m-9126 -35 c16 -9 31 -13 34 -10 3 3 14 -7 24 -22 10
-16 18 -24 18 -19 0 5 11 -3 25 -18 14 -15 25 -33 25 -41 0 -7 3 -15 8 -17 18
-8 42 -69 36 -92 -3 -13 -1 -34 6 -46 8 -16 8 -25 0 -35 -6 -7 -8 -25 -4 -39
5 -21 3 -25 -10 -20 -12 4 -16 0 -16 -15 0 -49 -135 -143 -227 -157 -88 -14
-211 62 -256 158 -63 133 -33 297 63 346 81 41 220 55 274 27z m5236 -27 c0
-6 -6 -5 -15 2 -8 7 -15 14 -15 16 0 2 7 1 15 -2 8 -4 15 -11 15 -16z m6060
-9 c0 -5 -4 -9 -10 -9 -5 0 -10 7 -10 16 0 8 5 12 10 9 6 -3 10 -10 10 -16z
m-4040 -29 c0 -5 -5 -10 -11 -10 -5 0 -7 5 -4 10 3 6 8 10 11 10 2 0 4 -4 4
-10z m-63 -61 c-12 -7 -16 -17 -12 -30 4 -10 2 -19 -3 -19 -5 0 -12 10 -16 23
-9 34 -7 40 9 34 8 -4 17 -2 21 4 3 6 9 7 12 4 4 -4 -1 -11 -11 -16z m83 -14
c0 -8 -4 -17 -10 -20 -6 -4 -10 5 -10 20 0 15 4 24 10 20 6 -3 10 -12 10 -20z
m3917 -101 c-3 -3 -12 -4 -19 -1 -8 3 -5 6 6 6 11 1 17 -2 13 -5z m-387 -276
c-32 -12 -51 -3 -20 10 14 5 29 7 34 4 5 -3 -1 -9 -14 -14z m-8202 -90 c9 -9
12 -9 12 0 0 16 39 9 52 -9 7 -10 11 -11 14 -2 4 8 11 6 25 -8 10 -10 19 -21
19 -23 0 -3 11 -17 24 -31 14 -15 22 -33 19 -44 -2 -10 0 -34 5 -53 12 -44 5
-88 -14 -88 -8 0 -17 -6 -20 -14 -3 -8 -14 -16 -25 -19 -10 -3 -19 -14 -19
-24 0 -20 -44 -48 -68 -44 -7 1 -15 -5 -18 -14 -4 -9 -13 -14 -21 -10 -11 4
-13 1 -9 -11 6 -15 4 -15 -11 -3 -10 8 -21 19 -25 24 -5 6 -8 5 -8 -2 0 -7 -7
-10 -15 -7 -8 4 -15 18 -15 33 0 15 -5 32 -11 38 -6 6 -11 27 -12 46 0 20 -5
33 -10 30 -4 -3 -5 -18 -2 -34 4 -18 3 -29 -4 -29 -6 0 -11 6 -11 13 0 7 -13
18 -29 24 -25 9 -30 18 -37 58 -5 36 -9 44 -16 31 -5 -9 -13 -16 -19 -16 -5 0
0 10 11 23 20 21 22 21 35 4 16 -22 25 -4 18 39 l-4 29 15 -25 c15 -24 15 -24
16 -3 0 25 16 39 23 21 2 -7 8 -10 12 -5 5 4 3 13 -3 19 -8 8 -9 15 -1 25 16
18 46 16 59 -4 9 -16 10 -15 5 5 -4 13 -2 22 4 22 6 0 11 9 11 20 0 14 5 18
17 13 11 -4 14 -3 9 5 -9 16 7 15 22 0z m-1992 -66 c-10 -11 -16 -12 -16 -4 0
7 5 12 10 12 6 0 10 8 11 18 0 11 2 13 6 4 3 -8 -2 -21 -11 -30z m15119 -52
c102 -44 137 -179 82 -311 -33 -78 -117 -144 -198 -155 -94 -12 -206 74 -225
173 -23 121 58 269 167 310 41 15 117 7 174 -17z m-13395 -16 c0 -8 -4 -12
-10 -9 -5 3 -10 10 -10 16 0 5 5 9 10 9 6 0 10 -7 10 -16z m70 12 c0 -3 -4 -8
-10 -11 -5 -3 -10 -1 -10 4 0 6 5 11 10 11 6 0 10 -2 10 -4z m-1933 -12 c-3
-3 -12 -4 -19 -1 -8 3 -5 6 6 6 11 1 17 -2 13 -5z m11458 -34 c3 -5 1 -10 -4
-10 -6 0 -11 5 -11 10 0 6 2 10 4 10 3 0 8 -4 11 -10z m-9605 -50 c0 -5 -2
-10 -4 -10 -3 0 -8 5 -11 10 -3 6 -1 10 4 10 6 0 11 -4 11 -10z m50 1 c0 -5
-7 -12 -16 -15 -14 -5 -15 -4 -4 9 14 17 20 19 20 6z m12640 -81 c0 -5 -5 -10
-11 -10 -5 0 -7 5 -4 10 3 6 8 10 11 10 2 0 4 -4 4 -10z m65 -8 c31 1 89 -29
92 -47 1 -6 3 -17 6 -25 2 -8 2 -12 0 -7 -3 4 -9 7 -14 7 -6 0 -7 -4 -4 -10 3
-5 -1 -10 -11 -10 -13 0 -15 -6 -10 -32 l6 -33 -19 24 -19 25 -4 -25 c-2 -18
-10 -25 -30 -27 -32 -4 -41 -40 -10 -42 9 0 32 -1 50 -2 20 -1 32 -7 32 -16 0
-9 7 -13 20 -9 11 3 18 1 14 -4 -6 -10 43 -32 56 -24 10 6 43 -32 36 -43 -3
-5 6 -14 19 -20 16 -7 25 -20 26 -34 0 -18 2 -19 7 -7 6 13 9 14 19 4 16 -17
1 -35 -25 -30 -14 2 -22 -1 -22 -10 0 -20 21 -30 31 -14 5 8 9 10 9 5 0 -5 -7
-17 -16 -27 -9 -10 -17 -38 -18 -64 -1 -31 -7 -50 -18 -56 -9 -5 -14 -17 -11
-28 3 -10 0 -22 -6 -25 -5 -4 -8 -12 -5 -19 2 -7 -6 -13 -22 -14 -15 0 -31 -9
-36 -18 -8 -13 -13 -14 -24 -4 -9 7 -14 8 -14 1 0 -7 -25 -10 -65 -8 -51 1
-68 6 -80 21 -12 16 -14 17 -9 3 3 -10 2 -18 -3 -18 -12 0 -14 38 -2 45 5 4 9
12 9 18 0 7 -4 6 -10 -3 -5 -8 -10 -12 -10 -7 0 4 1 9 3 10 1 2 -5 12 -13 22
-9 11 -10 16 -2 11 7 -4 12 -2 12 8 0 8 -6 17 -12 20 -7 4 -4 5 8 2 18 -3 21
1 20 36 -1 30 -6 41 -25 51 -31 15 -39 37 -14 38 16 1 16 2 1 6 -13 3 -16 11
-11 35 4 21 3 29 -5 24 -6 -3 -13 -2 -17 4 -4 6 -12 8 -18 4 -7 -3 -4 1 6 9
17 14 14 47 -4 47 -17 0 -9 30 9 31 10 0 12 3 5 6 -7 2 -13 9 -13 14 0 6 4 8
9 4 5 -3 12 -1 15 4 3 5 -1 11 -8 14 -19 7 -41 47 -26 47 5 0 11 -8 11 -17 1
-16 2 -16 6 -1 2 9 -5 26 -16 37 -12 12 -21 16 -21 9 0 -9 -3 -9 -11 -1 -16
16 -2 33 26 33 12 0 25 7 29 15 4 13 2 14 -14 5 -26 -14 -26 1 0 18 11 7 17
18 14 27 -4 10 0 15 15 15 12 0 21 4 21 9 0 5 9 7 20 4 13 -3 22 1 26 11 4 11
10 13 18 7 6 -5 25 -9 41 -9z m-14270 -41 c-3 -6 -14 -11 -23 -11 -15 1 -15 2
2 15 21 16 32 13 21 -4z m-199 -12 c2 -5 16 -4 30 1 34 13 37 13 31 -4 -7 -19
39 -51 47 -33 3 9 8 8 18 -4 9 -10 21 -13 38 -8 14 4 21 7 16 8 -11 1 14 31
26 31 6 0 5 -7 -2 -15 -7 -9 -10 -19 -6 -22 4 -4 11 -1 16 7 9 14 12 7 9 -16
-1 -8 22 -24 34 -24 4 0 7 7 7 15 0 24 15 18 31 -12 8 -16 16 -30 19 -33 3 -3
22 -39 44 -81 48 -97 51 -163 10 -240 -60 -110 -175 -155 -305 -118 -59 16
-129 19 -129 5 0 -14 -82 -15 -92 -1 -5 6 -8 5 -8 -3 0 -9 -8 -7 -26 7 -27 22
-60 29 -49 11 3 -5 1 -10 -4 -10 -6 0 -11 7 -11 15 0 8 -9 19 -21 25 -11 7
-18 17 -15 25 10 26 -8 25 -21 -2 -7 -16 -11 -20 -8 -10 6 24 -5 48 -19 40 -6
-4 -5 1 2 10 12 13 10 19 -7 34 -12 9 -21 24 -21 31 0 8 -6 12 -15 9 -8 -4
-17 -1 -21 5 -5 7 -2 8 7 4 8 -4 3 2 -11 13 -15 12 -19 21 -11 21 10 0 12 8 8
30 -4 17 -2 30 3 30 6 0 10 5 10 11 0 7 8 18 18 25 15 12 15 15 2 25 -13 9
-13 10 0 6 15 -4 60 51 60 72 0 6 4 11 9 11 5 0 17 7 25 16 9 9 22 17 30 18 7
1 25 10 40 19 15 10 31 15 36 12 5 -3 11 -1 15 5 4 6 11 8 16 5 5 -4 9 -2 9 4
0 28 121 54 136 30z m254 -9 c12 -8 11 -10 -7 -10 -13 0 -23 5 -23 10 0 13 11
13 30 0z m-101 -14 c11 -14 6 -15 -27 -7 -4 1 8 21 12 21 2 0 9 -6 15 -14z
m14123 -98 c-7 -7 -12 -8 -12 -2 0 14 12 26 19 19 2 -3 -1 -11 -7 -17z
m-14862 -119 c0 -6 7 -8 16 -5 10 4 22 -1 30 -11 13 -17 13 -17 14 1 0 15 3
16 15 6 9 -7 18 -10 22 -6 3 3 13 -3 21 -15 8 -11 20 -18 28 -15 8 3 14 1 14
-4 0 -6 -5 -10 -11 -10 -7 0 -9 -9 -6 -21 4 -16 2 -19 -10 -15 -11 5 -14 1
-10 -13 3 -15 1 -18 -12 -14 -9 3 -21 12 -27 20 -10 11 -16 7 -33 -22 -21 -36
-30 -64 -11 -35 8 12 10 11 10 -6 0 -12 7 -27 15 -34 9 -7 14 -19 11 -27 -5
-13 12 -17 67 -13 30 2 37 -16 10 -23 -12 -3 -8 -5 9 -6 15 0 30 -6 34 -13 4
-7 3 -8 -4 -4 -13 8 -17 -55 -5 -68 10 -10 13 -36 4 -36 -4 0 -14 -11 -21 -25
-7 -14 -19 -25 -26 -25 -19 0 -37 -60 -22 -77 17 -20 17 -53 1 -53 -7 0 -13
-9 -13 -20 0 -13 -7 -20 -19 -20 -11 0 -21 -4 -23 -9 -1 -5 -19 -12 -39 -16
-27 -5 -40 -2 -52 10 -11 10 -17 12 -17 4 0 -19 -43 14 -46 36 -2 10 -5 29 -9
42 -3 13 -1 23 5 23 5 0 10 12 9 28 l-1 27 -8 -25 c-8 -25 -12 -21 -14 15 -1
11 -7 19 -13 17 -7 -1 -13 2 -13 7 0 5 -12 12 -26 15 -17 5 -24 12 -20 21 3 9
0 12 -10 8 -7 -3 -14 0 -14 7 0 6 -4 8 -10 5 -15 -9 -23 41 -16 96 6 41 4 49
-9 49 -13 0 -14 2 -3 14 7 8 16 12 20 10 4 -2 10 1 14 7 5 8 3 9 -6 4 -10 -6
-11 -2 -6 19 4 17 2 34 -5 42 -8 10 -8 14 0 14 6 0 11 -4 11 -10 0 -5 6 -10
14 -10 9 0 12 7 9 20 -4 16 0 20 23 20 15 0 24 3 20 7 -11 11 -51 11 -58 -1
-6 -8 -8 -7 -8 1 0 7 -6 10 -14 7 -11 -4 -13 0 -9 15 4 15 1 21 -11 21 -9 0
-16 4 -16 9 0 5 15 8 33 7 26 -1 32 2 30 19 -1 11 0 14 3 8 3 -7 18 -13 32
-13 21 0 24 2 12 10 -13 8 -13 10 1 10 9 0 19 -7 23 -15 3 -8 13 -15 23 -15
14 0 15 2 4 9 -7 5 -10 14 -6 21 6 9 10 9 16 -1 8 -11 12 -10 24 5 7 10 18 15
24 12 5 -4 12 -2 16 4 8 13 25 13 25 -1z m145 -19 c3 -5 1 -10 -4 -10 -6 0
-11 5 -11 10 0 6 2 10 4 10 3 0 8 -4 11 -10z m14762 4 c-3 -3 -12 -4 -19 -1
-8 3 -5 6 6 6 11 1 17 -2 13 -5z m-2066 -118 c-14 -36 -22 -33 -9 5 6 16 12
28 14 26 3 -2 0 -16 -5 -31z m-84 -66 c3 -10 2 -11 -4 -4 -4 6 -15 14 -23 17
-11 5 -9 6 4 4 11 -1 21 -9 23 -17z m2211 -15 c-3 -3 -9 2 -12 12 -6 14 -5 15
5 6 7 -7 10 -15 7 -18z m-2558 -135 c0 -5 -4 -10 -10 -10 -5 0 -10 5 -10 10 0
6 5 10 10 10 6 0 10 -4 10 -10z m-9088 -562 c10 -13 30 -48 44 -78 14 -30 29
-62 34 -71 15 -29 4 -122 -19 -164 -53 -93 -104 -121 -205 -113 -92 8 -139 36
-204 123 -22 30 -44 98 -44 140 -1 38 3 52 20 66 12 9 22 22 22 27 0 5 9 21
21 35 23 30 63 43 159 53 36 3 67 9 70 11 13 13 85 -7 102 -29z m3018 -222 c0
-3 -4 -8 -10 -11 -5 -3 -10 -1 -10 4 0 6 5 11 10 11 6 0 10 -2 10 -4z m-610
-126 c0 -5 -5 -10 -11 -10 -5 0 -7 5 -4 10 3 6 8 10 11 10 2 0 4 -4 4 -10z"/>
<path d="M1755 6470 c-3 -5 3 -10 15 -10 12 0 18 5 15 10 -3 6 -10 10 -15 10
-5 0 -12 -4 -15 -10z"/>
<path d="M1770 6430 c0 -5 5 -10 10 -10 6 0 10 5 10 10 0 6 -4 10 -10 10 -5 0
-10 -4 -10 -10z"/>
<path d="M1780 5540 c0 -11 7 -20 15 -20 17 0 18 2 9 24 -9 23 -24 20 -24 -4z"/>
<path d="M1837 5497 c-3 -8 1 -23 8 -34 14 -17 14 -17 15 2 0 11 -4 26 -9 33
-7 11 -9 11 -14 -1z"/>
<path d="M1685 5310 c-3 -5 -1 -10 4 -10 6 0 11 5 11 10 0 6 -2 10 -4 10 -3 0
-8 -4 -11 -10z"/>
<path d="M2248 4873 c7 -3 16 -2 19 1 4 3 -2 6 -13 5 -11 0 -14 -3 -6 -6z"/>
<path d="M2250 4840 c0 -5 5 -10 11 -10 5 0 7 5 4 10 -3 6 -8 10 -11 10 -2 0
-4 -4 -4 -10z"/>
<path d="M12106 6931 c-4 -7 -5 -15 -2 -18 9 -9 19 4 14 18 -4 11 -6 11 -12 0z"/>
<path d="M11860 6855 c0 -5 5 -17 10 -25 5 -8 10 -10 10 -5 0 6 -5 17 -10 25
-5 8 -10 11 -10 5z"/>
<path d="M12195 6850 c3 -5 8 -10 11 -10 2 0 4 5 4 10 0 6 -5 10 -11 10 -5 0
-7 -4 -4 -10z"/>
<path d="M13175 6610 c3 -5 10 -10 16 -10 5 0 9 5 9 10 0 6 -7 10 -16 10 -8 0
-12 -4 -9 -10z"/>
<path d="M13895 6310 c4 -6 11 -8 16 -5 14 9 11 15 -7 15 -8 0 -12 -5 -9 -10z"/>
<path d="M12498 5343 c7 -3 16 -2 19 1 4 3 -2 6 -13 5 -11 0 -14 -3 -6 -6z"/>
<path d="M13440 5150 c0 -5 7 -10 16 -10 8 0 12 5 9 10 -3 6 -10 10 -16 10 -5
0 -9 -4 -9 -10z"/>
<path d="M4150 6146 c0 -2 8 -10 18 -17 15 -13 16 -12 3 4 -13 16 -21 21 -21
13z"/>
<path d="M3690 6100 c0 -5 5 -10 11 -10 5 0 7 5 4 10 -3 6 -8 10 -11 10 -2 0
-4 -4 -4 -10z"/>
<path d="M4396 5945 c4 -8 8 -15 10 -15 2 0 4 7 4 15 0 8 -4 15 -10 15 -5 0
-7 -7 -4 -15z"/>
<path d="M3580 5720 c0 -5 5 -10 11 -10 5 0 7 5 4 10 -3 6 -8 10 -11 10 -2 0
-4 -4 -4 -10z"/>
<path d="M4245 5180 c-3 -5 -1 -10 4 -10 6 0 11 5 11 10 0 6 -2 10 -4 10 -3 0
-8 -4 -11 -10z"/>
<path d="M4245 5099 c-11 -16 -1 -19 13 -3 7 8 8 14 3 14 -5 0 -13 -5 -16 -11z"/>
<path d="M3395 5010 c-8 -13 15 -13 35 0 12 8 11 10 -7 10 -12 0 -25 -4 -28
-10z"/>
<path d="M4273 5013 c-15 -5 -17 -23 -4 -23 5 0 11 7 15 15 3 8 4 15 3 14 -1
0 -8 -3 -14 -6z"/>
<path d="M3380 4975 c0 -8 -7 -15 -15 -15 -20 0 -38 -37 -32 -66 2 -13 1 -22
-2 -19 -4 2 -8 -12 -8 -31 -1 -19 3 -37 8 -40 5 -3 9 3 9 13 1 13 5 11 16 -10
8 -15 19 -25 24 -22 6 4 10 -4 10 -17 0 -17 3 -19 9 -9 5 7 13 11 19 7 6 -3
13 -2 17 4 3 5 -1 10 -10 10 -9 0 -14 4 -10 9 3 5 1 12 -5 16 -5 3 -10 12 -10
18 1 7 9 2 20 -11 16 -20 19 -20 19 -5 -1 10 3 42 7 71 6 49 5 52 -12 46 -18
-6 -17 -5 1 9 11 9 16 17 11 17 -5 0 -3 6 3 14 9 11 5 15 -20 20 -45 9 -49 8
-49 -9z"/>
<path d="M4190 4970 c0 -5 5 -10 10 -10 6 0 10 5 10 10 0 6 -4 10 -10 10 -5 0
-10 -4 -10 -10z"/>
<path d="M4260 4970 c0 -5 5 -10 10 -10 6 0 10 5 10 10 0 6 -4 10 -10 10 -5 0
-10 -4 -10 -10z"/>
<path d="M4240 4946 c0 -2 7 -9 15 -16 9 -7 15 -8 15 -2 0 5 -7 12 -15 16 -8
3 -15 4 -15 2z"/>
<path d="M4331 4834 c0 -11 3 -14 6 -6 3 7 2 16 -1 19 -3 4 -6 -2 -5 -13z"/>
<path d="M3410 4723 c0 -7 4 -13 9 -13 5 0 13 6 19 13 8 10 6 13 -9 13 -10 0
-19 -6 -19 -13z"/>
<path d="M4360 4711 c0 -6 9 -9 19 -8 11 0 17 5 15 9 -7 11 -34 10 -34 -1z"/>
<path d="M3436 4685 c4 -8 10 -15 15 -15 5 0 9 7 9 15 0 8 -7 15 -15 15 -9 0
-12 -6 -9 -15z"/>
<path d="M15815 5260 c3 -5 11 -10 16 -10 6 0 7 5 4 10 -3 6 -11 10 -16 10 -6
0 -7 -4 -4 -10z"/>
<path d="M17635 5050 c-3 -5 -1 -10 4 -10 6 0 11 5 11 10 0 6 -2 10 -4 10 -3
0 -8 -4 -11 -10z"/>
<path d="M14440 4410 c0 -5 5 -10 11 -10 5 0 7 5 4 10 -3 6 -8 10 -11 10 -2 0
-4 -4 -4 -10z"/>
<path d="M10520 4029 c0 -5 5 -7 10 -4 6 3 10 8 10 11 0 2 -4 4 -10 4 -5 0
-10 -5 -10 -11z"/>
<path d="M13810 4020 c0 -5 5 -10 10 -10 6 0 10 5 10 10 0 6 -4 10 -10 10 -5
0 -10 -4 -10 -10z"/>
<path d="M13836 3987 c3 -10 9 -15 12 -12 3 3 0 11 -7 18 -10 9 -11 8 -5 -6z"/>
<path d="M14060 3970 c0 -5 5 -10 11 -10 5 0 7 5 4 10 -3 6 -8 10 -11 10 -2 0
-4 -4 -4 -10z"/>
<path d="M14195 3910 c3 -5 8 -10 11 -10 2 0 4 5 4 10 0 6 -5 10 -11 10 -5 0
-7 -4 -4 -10z"/>
<path d="M14280 3884 c0 -8 5 -12 10 -9 6 3 10 10 10 16 0 5 -4 9 -10 9 -5 0
-10 -7 -10 -16z"/>
<path d="M14327 3829 c7 -7 15 -10 18 -7 3 3 -2 9 -12 12 -14 6 -15 5 -6 -5z"/>
<path d="M13930 3724 c0 -8 5 -12 10 -9 6 4 8 11 5 16 -9 14 -15 11 -15 -7z"/>
<path d="M8403 3644 c-4 -11 -8 -12 -13 -4 -10 17 -31 3 -23 -15 3 -8 0 -15
-6 -15 -6 0 -11 7 -11 15 0 19 -5 19 -41 -2 -18 -11 -27 -23 -24 -32 3 -7 -2
-25 -11 -39 -11 -16 -12 -23 -3 -20 7 2 20 20 31 38 17 32 18 33 18 10 -1 -29
-45 -84 -63 -77 -7 3 -13 -5 -13 -19 -1 -17 3 -24 16 -24 11 0 21 4 24 9 4 5
-4 7 -16 4 -17 -4 -14 1 14 21 20 14 38 31 41 38 2 7 8 9 13 5 5 -4 4 -11 -1
-15 -23 -16 -36 -40 -25 -47 6 -4 9 -1 8 6 -2 6 6 12 17 13 27 3 66 25 45 26
-8 0 3 12 25 25 35 22 39 31 12 26 -4 -1 -3 7 3 18 13 25 13 71 0 71 -6 0 -13
-7 -17 -16z"/>
<path d="M14080 3650 c0 -5 5 -10 11 -10 5 0 7 5 4 10 -3 6 -8 10 -11 10 -2 0
-4 -4 -4 -10z"/>
<path d="M13175 3510 c3 -5 8 -10 11 -10 2 0 4 5 4 10 0 6 -5 10 -11 10 -5 0
-7 -4 -4 -10z"/>
<path d="M8225 3430 c3 -5 11 -10 16 -10 6 0 7 5 4 10 -3 6 -11 10 -16 10 -6
0 -7 -4 -4 -10z"/>
<path d="M8260 3429 c0 -5 5 -7 10 -4 6 3 10 8 10 11 0 2 -4 4 -10 4 -5 0 -10
-5 -10 -11z"/>
<path d="M8220 3390 c0 -5 5 -10 10 -10 6 0 10 5 10 10 0 6 -4 10 -10 10 -5 0
-10 -4 -10 -10z"/>
<path d="M14035 3260 c-3 -5 -1 -10 4 -10 6 0 11 5 11 10 0 6 -2 10 -4 10 -3
0 -8 -4 -11 -10z"/>
<path d="M13498 2933 c7 -3 16 -2 19 1 4 3 -2 6 -13 5 -11 0 -14 -3 -6 -6z"/>
<path d="M13372 2850 c0 -14 2 -19 5 -12 2 6 2 18 0 25 -3 6 -5 1 -5 -13z"/>
<path d="M13356 2798 c3 -4 9 -8 15 -8 5 0 9 4 9 8 0 5 -7 9 -15 9 -8 0 -12
-4 -9 -9z"/>
<path d="M13590 2600 c0 -5 5 -10 11 -10 5 0 7 5 4 10 -3 6 -8 10 -11 10 -2 0
-4 -4 -4 -10z"/>
<path d="M13674 2532 c-7 -4 -8 -16 -4 -27 7 -19 7 -19 14 3 9 27 5 34 -10 24z"/>
<path d="M9400 2429 c0 -5 5 -7 10 -4 6 3 10 8 10 11 0 2 -4 4 -10 4 -5 0 -10
-5 -10 -11z"/>
<path d="M9810 2396 c0 -2 7 -9 15 -16 9 -7 15 -8 15 -2 0 5 -7 12 -15 16 -8
3 -15 4 -15 2z"/>
<path d="M9890 2340 c0 -5 5 -10 11 -10 5 0 7 5 4 10 -3 6 -8 10 -11 10 -2 0
-4 -4 -4 -10z"/>
<path d="M9437 2319 c7 -7 15 -10 18 -7 3 3 -2 9 -12 12 -14 6 -15 5 -6 -5z"/>
<path d="M9506 2312 c6 -4 14 -14 17 -22 4 -10 6 -8 6 8 1 15 -5 22 -16 22
-11 0 -14 -3 -7 -8z"/>
<path d="M9451 2274 c0 -11 3 -14 6 -6 3 7 2 16 -1 19 -3 4 -6 -2 -5 -13z"/>
<path d="M9480 2279 c0 -5 5 -7 10 -4 6 3 10 8 10 11 0 2 -4 4 -10 4 -5 0 -10
-5 -10 -11z"/>
<path d="M13230 2129 c0 -5 5 -7 10 -4 6 3 10 8 10 11 0 2 -4 4 -10 4 -5 0
-10 -5 -10 -11z"/>
<path d="M13145 2040 c3 -5 8 -10 11 -10 2 0 4 5 4 10 0 6 -5 10 -11 10 -5 0
-7 -4 -4 -10z"/>
<path d="M12850 2030 c0 -5 7 -10 15 -10 8 0 15 5 15 10 0 6 -7 10 -15 10 -8
0 -15 -4 -15 -10z"/>
<path d="M13095 2020 c3 -5 8 -10 11 -10 2 0 4 5 4 10 0 6 -5 10 -11 10 -5 0
-7 -4 -4 -10z"/>
<path d="M13055 2010 c3 -5 8 -10 11 -10 2 0 4 5 4 10 0 6 -5 10 -11 10 -5 0
-7 -4 -4 -10z"/>
<path d="M9210 2000 c0 -5 5 -10 10 -10 6 0 10 5 10 10 0 6 -4 10 -10 10 -5 0
-10 -4 -10 -10z"/>
<path d="M15601 4374 c13 -16 29 -19 29 -5 0 5 -9 11 -21 14 -16 4 -18 3 -8
-9z"/>
<path d="M16355 3970 c3 -5 8 -10 11 -10 2 0 4 5 4 10 0 6 -5 10 -11 10 -5 0
-7 -4 -4 -10z"/>
<path d="M15376 2086 c-22 -10 -25 -14 -12 -19 9 -4 16 -2 16 3 0 6 9 10 19
10 11 0 23 5 26 10 8 13 -13 11 -49 -4z"/>
<path d="M15135 1260 c3 -5 11 -10 16 -10 6 0 7 5 4 10 -3 6 -11 10 -16 10 -6
0 -7 -4 -4 -10z"/>
<path d="M14858 1113 c7 -3 16 -2 19 1 4 3 -2 6 -13 5 -11 0 -14 -3 -6 -6z"/>
<path d="M17050 3485 c-14 -16 -10 -18 14 -9 9 3 16 10 16 15 0 14 -16 11 -30
-6z"/>
<path d="M4918 1913 c7 -3 16 -2 19 1 4 3 -2 6 -13 5 -11 0 -14 -3 -6 -6z"/>
<path d="M4881 1794 c0 -11 3 -14 6 -6 3 7 2 16 -1 19 -3 4 -6 -2 -5 -13z"/>
<path d="M4971 1791 c-7 -5 -12 -13 -10 -18 2 -5 12 -1 22 9 18 19 12 24 -12
9z"/>
<path d="M5022 1788 c-7 -7 -12 -16 -12 -21 0 -5 7 -1 16 8 9 9 14 18 12 20
-2 3 -10 -1 -16 -7z"/>
<path d="M4951 1663 c7 -12 15 -20 18 -17 3 2 -3 12 -13 22 -17 16 -18 16 -5
-5z"/>
<path d="M17506 1551 c-4 -7 -5 -15 -2 -18 9 -9 19 4 14 18 -4 11 -6 11 -12 0z"/>
<path d="M17458 1183 c7 -3 16 -2 19 1 4 3 -2 6 -13 5 -11 0 -14 -3 -6 -6z"/>
<path d="M17695 1180 c-3 -5 -1 -10 4 -10 6 0 11 5 11 10 0 6 -2 10 -4 10 -3
0 -8 -4 -11 -10z"/>
<path d="M2520 1335 c-7 -8 -9 -15 -6 -15 4 0 14 7 22 15 9 8 11 15 6 15 -5 0
-15 -7 -22 -15z"/>
<path d="M2270 1320 c0 -5 5 -10 10 -10 6 0 10 5 10 10 0 6 -4 10 -10 10 -5 0
-10 -4 -10 -10z"/>
<path d="M2400 1309 c0 -5 -4 -7 -10 -4 -5 3 -10 -1 -10 -9 0 -8 -6 -21 -12
-28 -7 -7 -20 -22 -28 -32 -14 -18 -14 -19 7 -8 29 16 36 15 29 -4 -5 -13 -2
-15 16 -10 13 3 26 6 29 6 4 0 9 7 13 15 5 13 2 14 -15 4 -17 -8 -20 -8 -14 1
4 7 1 17 -6 22 -10 7 -8 8 8 3 12 -3 24 -1 28 5 4 6 1 9 -7 8 -8 -2 -13 6 -12
20 0 12 -3 22 -8 22 -4 0 -8 -5 -8 -11z"/>
<path d="M2340 1296 c0 -8 5 -18 10 -21 6 -3 10 3 10 14 0 12 -4 21 -10 21 -5
0 -10 -6 -10 -14z"/>
<path d="M19130 6440 c0 -5 5 -10 11 -10 5 0 7 5 4 10 -3 6 -8 10 -11 10 -2 0
-4 -4 -4 -10z"/>
</g>
</svg>
